<?xml version="1.0" encoding="utf-8"?>
<!-- Generator: Adobe Illustrator 25.2.0, SVG Export Plug-In . SVG Version: 6.00 Build 0)  -->
<svg version="1.1" id="Camada_3" xmlns="http://www.w3.org/2000/svg" xmlns:xlink="http://www.w3.org/1999/xlink" x="0px" y="0px"
	 viewBox="0 0 1000 1000" style="enable-background:new 0 0 1000 1000;" xml:space="preserve">
<style type="text/css">
	.st0{fill:#FED767;}
	.st1{fill:#0980B7;}
	.st2{fill:#F6C09C;}
	.st3{fill:#DF3B39;}
	.st4{fill:#F4BA2B;}
	.st5{fill:#BD8150;}
	.st6{fill:#FFFFFF;}
	.st7{fill:#564E77;}
	.st8{fill:#C64250;}
	.st9{fill:#B04E43;}
	.st10{fill:#D18D9B;}
	.st11{fill:#CB6B31;}
	.st12{fill:#CC6E69;}
	.st13{fill:#C12B38;}
	.st14{fill:#EF5050;}
	.st15{fill:#F2A4A6;}
	.st16{fill:#D7B396;}
	.st17{fill:#6BB3D4;}
	.st18{fill:#DD8E96;}
	.st19{fill:#EC8988;}
	.st20{fill:#B42F43;}
	.st21{fill:#C93643;}
	.st22{fill:#A31C37;}
</style>
<g>
	<path class="st0" d="M485.5,151.9c195.6,0,354.8,159.2,354.8,354.8c0,111.5-51.5,212.6-132.1,277.6l-0.3-2
		c-2.6-13.2-8.5-29.1-10.3-33.8c0.5-0.6,0.8-1,0.9-1.4c2.2-5.5-6.3-16.9-10-21.5c-3.6-4.5-6.5-6.5-8.4-7.5c-0.1-1.6-0.7-3.2-1.4-4.6
		h40.6c3.2,0,5.8-2.6,5.8-5.8v-79.5c9.6-1.7,17.1-6.4,22.1-14.2c16.5-25.8,1.2-77.4-2.1-87.5c-4.2-13.1-6.6-19.1-7.6-21.4
		c0.7-2.1,0-3.9-0.6-4.8c-2-3.7-10.3-20.4-11.8-23.5c-0.4-8.3-2.6-16.2-5.6-23.9c6.1-7.4,10.9-16.2,9.7-23.5
		c-1.9-11.2-10.7-14.8-16.9-15.3c0-0.5,0.1-0.9,0.1-1.4c0.2-5.2-1.3-9.4-4.4-12.2c-7.6-6.8-15.9-5.8-21-3.4
		c-1.6-5.1-4.7-7.3-7.2-8.3c-13.5-5.3-24.3,7.7-28.8,16.4c-0.2,0-0.5,0-0.7,0c-16.5,0-31.7,5.3-44.1,14.4c-8.1-6-21.5-12-39.9-17.9
		v-39.8h53v-43h-53h-3h-6.5v80c-7.1-2-12.8-3.4-15.5-4.1c-0.8-8.3-1.9-14.5-6.4-15.3c-3.6-0.6-22.3-1.6-30.5-0.7
		c-8,0.8-11.1,11.4-12.1,15.6c-7.6,0.1-13.3,0.6-14.3,0.7h-12.2c-10.9-8.2-15.7-15.9-19.3-21.6c-1.1-1.7-2-3.2-2.9-4.4
		c-3.9-5.2-12.4-3.9-16.8-2.8c-2.8-12.8-2.3-31.2-2.1-36.3c0.2-3.1,0.1-5.1,0.1-5.6v-17.8c22.5-1.6,34.8-13.2,34.8-32.7
		c0-9.3-2.8-16.6-8.4-21.6c-3.8-3.4-8.2-5.2-12.2-6.1c1.1-1.3,1.8-2.4,1.9-2.6c1.1-2.2,10-19.8,12.4-25.9c3.2-1,10.8-4,15.2-11.9
		c4.2-7.5,4.2-17.2,0-28.8c-3.4-9.4-10.9-17-19.9-23C460.6,152.5,473,151.9,485.5,151.9"/>
	<path class="st0" d="M470,763.8c-1.6,7.4-3.3,15.2-5,23c-10.3-1.8-51.9-9.1-67-12.4c-1.8-0.4-3.6-0.8-5.4-1.2
		c-4.8-1.1-9.4-2.1-14-2.9l3.9-18.2c0.9,0,1.7,0,2.6,0c8.2,0,17-1.4,26.2-4.2c13.6-4.1,29.9-10,46.3-16.6
		C459.8,736.6,465,750.2,470,763.8"/>
	<path class="st0" d="M369.2,448.6l-7.5,8.6c-0.9,1-31.5,33.2-35.2,37.2c-1.3,1.4-1.9,4.1-1.9,7.5c-2.3,3.2-11.4,16.7-11.9,30
		c-0.5,14.5,6.7,107,11.9,156.4c2.6,25.2,12.3,44.1,28.1,54.6c1,0.6,1.9,1.2,2.9,1.8l-5.6,26.2c-0.2,0.1-0.4,0.1-0.6,0.2
		c-14.7,5.3-17.4,14.7-23.5,43.7c-0.5,2.4-1.1,5.1-1.7,8c-114.8-58.8-193.5-178.4-193.5-316c0-101.9,43.2-194,112.3-258.7
		c1,0.2,2,0.3,3,0.5c0.4,3.1,1.2,9.2,2.5,17.2c-1.2,2.6-4.5,11.5-2.7,27.2c1.8,15.9,10.4,22.2,13.5,24c2,7.5,4.3,15,6.9,22
		c11.3,31.1,21.4,51.9,29.3,60.1c4.2,4.4,19.7,11.4,39.4,11.4c2,0,4-0.1,6-0.2c1.3,0.1,8.4,0.7,19.7,5.9c-2.5,2-5.4,4.9-5.8,8.1
		c-0.4,3,2.1,6.5,6.6,12.4C364.3,440.5,367.6,444.8,369.2,448.6"/>
	<path class="st1" d="M740.3,528c3.1,9.7,18,59.4,2.7,83.3c-4.1,6.4-10,10.3-17.9,11.8v-110c3.6-1.6,6.4-3.3,8.3-4.7
		C734.6,511.3,736.8,517.2,740.3,528"/>
	<path class="st1" d="M732.6,502.8L732.6,502.8c-1.2,1.1-3.6,2.9-7.4,4.8v-19.5C728.1,494,731.4,500.7,732.6,502.8"/>
	<path class="st2" d="M724.2,430.3c1.2,7.1-6.1,17.7-13.9,25.1c-7.1,6.8-13.4,9.9-15.7,9.4c-3.1-0.7-5.1-1.9-5.8-3.8
		c-1.4-3.4,1.1-8.6,2.4-10.7c8.5-7,17.2-19.8,20.2-31.2C714.9,419.3,722.6,420.8,724.2,430.3"/>
	<path class="st3" d="M720.1,480.1v227.6c0,0.4-0.3,0.8-0.8,0.8h-50.3h-37.9h-50.3c-0.4,0-0.8-0.3-0.8-0.8v-81.6
		c2.1-1.5,4.1-2.9,6-3.6c0.1,0,2.1-0.9,5-2.3v77.3h118V480.1c0-5.3-0.7-10.5-2.1-15.5c3-2.2,5.5-4.4,6.7-5.6
		c0.8-0.7,1.6-1.5,2.3-2.3C718.8,464.2,720.1,472.1,720.1,480.1"/>
	<path class="st2" d="M704.6,404.2c2,1.8,2.9,4.6,2.8,8.3c-0.4,10.7-10.1,27-20.6,34.9c-4,3-7.4,4.2-9.7,3.4
		c-1.9-0.7-2.9-2.5-3.4-3.7c7.2-9.5,15.4-30.8,14.3-45C690.5,400.7,697.5,397.9,704.6,404.2"/>
	<path class="st3" d="M706.1,480.1v214.4h-112v-75.8c8.6-4.7,20.8-13,18.7-22.3c-1.3-6.1-4.8-9.2-8.2-10.6c3.6-4,5.7-8.8,4.2-14.1
		c-1.1-4-3.2-7-6.2-8.7c-1-0.6-2-1-3-1.2c4.7-4.3,7.2-9,5.4-14.2c-0.8-2.3-2.5-4-4.9-5.1c-1.7-0.7-3.8-1.1-6.1-1.2v-61.2
		c0-30.9,25.1-56,56-56c2,0,4.1,0.1,6.1,0.3c-0.7,1.9-1.4,3.9-2.1,5.8c-3.3,8.4-1.8,17.7,3.5,21.6c1.6,1.2,3.4,1.8,5.3,1.8
		c2.3,0,4.8-0.9,7.1-2.6c1.1,1.8,2.7,3.7,5.3,4.6c1,0.4,2.2,0.6,3.3,0.6c1.7,0,3.4-0.4,5.3-1.2c-0.6,2.5-0.7,5.3,0.3,7.9
		c1.4,3.5,4.6,5.8,9.4,6.8c0.5,0.1,1,0.2,1.5,0.2c2.9,0,6.2-1.5,9.3-3.4C705.6,470.9,706.1,475.5,706.1,480.1"/>
	<path class="st1" d="M693.8,752.5c2.2,6,6.8,18.9,9.1,29.8c-10.8,8.5-22.1,16.4-33.8,23.6v-34.1c3.2-2.3,13-9.6,20.4-15.7
		C691.1,754.7,692.6,753.5,693.8,752.5"/>
	<path class="st1" d="M684.7,728.7c7.3,9,9.6,15,9.3,16.4l-1.1,1.3l-0.2,0.2c-1.4,1.3-3.6,3.3-6.2,5.4c-5.2,4.2-12.2,9.6-17.3,13.4
		v-33.9c2.6-1.8,7.3-5.3,9.6-8.6C680,723.8,682,725.5,684.7,728.7"/>
	<path class="st2" d="M682.7,401c2.1,13.9-8.5,40.2-15.4,45.8c-1.8,1.4-4.4,2.8-6.7,1.1c-3-2.3-4.5-8.7-1.8-15.7
		c1.8-4.4,3.2-9,4.5-13.1c2.3-7.3,3.4-16.6,4.2-20c-1,0.7-1.9,1.7-2.7,2.9c-0.8,1.2-1.6,2.6-2.3,4.3c-2-0.3-4-0.6-6-0.7
		c3.4-5.6,11.3-16,21.4-12C680.5,394.4,682,396.9,682.7,401"/>
	<path class="st1" d="M672.9,713.5c1.3,1.8,2.6,4.3,2.3,5.8c-0.2,1-2.8,3.6-6.1,6.1v-11.9H672.9"/>
	<path class="st3" d="M664.1,769.2v39.6c-9.1,5.4-18.4,10.4-27.9,14.9V713.5h27.9V769.2"/>
	<path class="st3" d="M660.6,410.9c-0.7,2-1.4,4.2-2.1,6.6c-0.4,1.4-0.9,2.7-1.3,4.1c-2.3-0.3-4.7-0.4-7-0.4c-32.5,0-59,26.5-59,59
		v61.2c-3.5,0.2-7.3,1-11,1.9v-63.2c0-38.6,31.4-70,70-70C653.7,410.2,657.2,410.4,660.6,410.9z"/>
	<path class="st1" d="M631.2,757.3v31.1c-4.9,3.4-27.5,18-61.1,26.9l2.7-19.5l-4.6-3.3c-0.2-1.8-0.7-5-1.9-9
		C575.3,781.9,607.2,775.7,631.2,757.3"/>
	<path class="st1" d="M631.2,713.5v37.3c-23.7,20-58.7,26.5-66.4,27.7c-1.5-4.3-3.7-9.3-6.7-14.4c-8-13.5-26.9-57.3-31.1-67.2
		c6.6-4.6,10.8-8.6,12.5-12c7.4-0.4,14.3-4.5,18.6-7c0.7-0.4,1.4-0.8,2-1.1l1.7-1c5.7-3.1,9.9-5.5,10.8-9.6c0.7-0.4,1.7-1.1,2.7-2.1
		v43.6c0,3.2,2.6,5.8,5.8,5.8H631.2"/>
	<polyline class="st3" points="616.1,321.8 616.1,358.8 566.1,358.8 566.1,321.8 616.1,321.8 	"/>
	<path class="st2" d="M608,597.5c1.6,7.5-15.6,17.2-23.7,20.4c-2.7,1.1-5.3,2.9-8,4.8c-4,2.9-10.9,9.6-15.7,10.3c0.4,0,0.8,0,1.2,0
		c4.6,0,10.4-1.5,13.4-3.4v23.8c-0.4,5.6-4.6,8.2-5.8,8.7c-2.1,0.2-14.7,0.7-23.7-13c-10.5-16.1-14.9-30.9-13.7-37.3
		c1-5.3,3.5-8.1,4.3-8.8c1.1-0.5,4-1.9,6.8-4.4c0.1,0.3,0.1,0.5,0.2,0.7c0.5,1.5,2.3,2.2,3.7,1.4c0.8-0.5,1.2-1.3,1.2-2.1
		c0-0.2,0-0.5-0.1-0.7c-0.5-1.8-1-4.7,0.1-8.5c2.3-7.7,4.6-16.3,4.6-21.1c0-2.5,0-8.4,13.8-14.8c11.2-5.1,25.6-9,31.7-6.4
		c1.5,0.6,2,1.5,2.2,2.1c3.1,8.9-20.2,19.2-32.7,24.7l-2.7,1.2l-2.1,1.3c-5.2,3.2-8.9,8.5-10.2,14.4c-0.4,1.9-0.6,3.3-0.6,3.3
		c0,0,1.8-2.7,4.5-5.8c2.6-3,6-6.4,9-7.7l1.6-1l2.5-1.1c7.4-3.3,16.6-7.3,23.8-12c0.9-0.2,4-0.7,6.7,0.9c1.9,1.1,3.2,3,3.9,5.7
		c2.2,8.4-10.6,16.9-22.4,21.6c-8.1,3.3-22,10.5-24.7,22.5c2.2-3.4,7.1-7.1,12.3-10.4c5.2-3.3,10.8-6,14.3-7.5
		c3.5-1.4,10.8-4.7,16.8-9.5C602.2,590,606.6,590.9,608,597.5 M553.3,637.8c-0.9-2.7-1.7-5.2-2.1-7.5c-0.2-1.2-0.2-2.3-0.3-3.6
		c0-1.2,0-2.6-0.2-4.1c-0.2-1.5-0.6-3-1.2-4.4c-0.7-1.5-1.3-2.5-1.9-3.6c-0.6-1.1-1.1-2.2-1.6-3.4c-0.4-1.2-0.9-2.4-0.8-3.8
		c-0.6,0.5-0.9,1.2-1.2,1.9c-0.3,0.7-0.4,1.4-0.5,2.2c-0.1,1.5,0,3,0.3,4.4c0.3,1.4,0.8,2.9,1.1,3.9c0.3,1.1,0.5,2.2,0.7,3.4
		c0.2,1.2,0.2,2.5,0.5,3.9c0.2,1.4,0.6,2.9,1.3,4.3C548.8,634.2,550.9,636.4,553.3,637.8"/>
	<path class="st1" d="M566.1,406.9c16.1,5.2,28.3,10.6,35.8,15.9c-14.7,12.4-24.6,30.3-26.5,50.6h-9.4V406.9"/>
	<path class="st3" d="M563.1,476.3h12.1c-0.1,1.2-0.1,2.4-0.1,3.6h-15.5V321.8h3.5v40V476.3z"/>
	<path class="st2" d="M575.2,537.6v7.2c-4,1.3-7.7,2.8-10.5,4.1C566.4,545.4,569.6,541,575.2,537.6"/>
	<path class="st1" d="M575.2,482.9v49c-12.5,6.4-16.4,17.3-17.4,20.8c-8.8,5.8-10,11.5-10,15.6c0,4.3-2.5,13.3-4.4,19.7
		c-0.4,1.3-0.6,2.6-0.7,3.8l-0.1,0c-2,3.3-5.6,5.4-7.4,6.4c-0.5-0.3-1-0.5-1.6-0.7c17.1-91.3,8.9-186.8,7.9-197.4
		c1.6,0.4,3.8,0.9,6.4,1.6c2.6,0.7,5.5,1.5,8.7,2.4v78.9H575.2"/>
	<path class="st4" d="M567.4,798l-2.6,18.5l-0.1,0l-0.1,1.7l-1.9,13.5l0,0.3c0,0,0,0.5-0.2,1.3c-0.7,2.1-2.4,4.8-5.1,6.2
		c-1.3,0.5-2.9,0.6-4.7,0.5c-0.4,0-0.8-0.1-1.1-0.1c3.8-1.7,6.5-6.1,7.9-13.1c2.8-13.3,4.3-25.1,5-31L567.4,798z"/>
	<path class="st1" d="M566.1,667.2c-1.4,1.2-3.7,2.5-6.8,4.3l-1.7,1c-0.6,0.3-1.3,0.7-2.1,1.2c-9.4,5.5-20.1,10.6-28.6,0.7
		c-11.2-13-19.6-49.1-19.1-56.5c0.4-5.4,8.7-9.6,14.7-12.7c1.5-0.7,2.8-1.4,4-2.1c1.7-1,3-1.2,4.1-1.2c0.1,0,0.2,0,0.3,0
		c-1.4,2-3,5-3.7,9.1c-1.6,8.9,4.2,25.3,14.4,41C549.6,664.3,560.2,666.8,566.1,667.2"/>
	<path class="st4" d="M563.6,789.2l-16.7-1.1c-4.7-29.4-25.5-70.8-28.8-77.4c0.8-3.2,1.5-6.4,2.1-9.4c1.2-0.7,2.3-1.4,3.3-2.1
		c4.8,11.2,23,53.4,31,67C560.1,775.4,562.5,784,563.6,789.2z"/>
	<path class="st4" d="M546.9,793.1l13.8,0.9c-0.6,5.2-2.2,17.7-5.2,32c-1.2,5.8-3.3,9.4-5.9,10.4c-1.9,0.7-3.9,0-5.2-0.6
		c-0.8-1-1.4-2.2-1.8-3.3c-1-3.1-0.9-6.4-0.7-8.8c0.2-0.9,0.3-1.9,0.5-3l0.7-2.7l-0.2,0C544.2,809.6,546.1,797.9,546.9,793.1z"/>
	<path class="st1" d="M537.7,817.5c-0.2,0-19.3,0.2-36-4.9c0.6-2.2,1.1-3.8,1.4-4.4c1.5-3.4,0.9-6,0.1-7.5c-1.3-2.5-3.8-4-5.7-4.8
		c1.1-4.3,2.2-8.8,3.3-13.3c4.4,1,14.6,2.7,30.4,2.7c3.2,0,6.6-0.1,10.2-0.2c0.4,1.8,0.7,3.6,0.9,5.3c-0.4,2.5-2.7,17.1-4.4,27.1h0
		H537.7"/>
	<path class="st1" d="M536.6,825c-0.3,1.7-0.2,5.6,1.4,9.6c1.3,3.5,3.6,6.7,7.5,8.6c0.1,0.1,0.2,0.1,0.4,0.2l0.3,0.1
		c0.2,0.1,0.4,0.2,0.6,0.3c0.2,0.1,0.4,0.2,0.7,0.3c4.3,1.6,8.2,1.7,11.7,0.2l0.1,0c1.6-0.6,3-1.4,4.2-2.5c2.4-2.2,3.4-4.9,3.9-6.9
		c1-3.2,1.8-10.7,2.1-14.2c31.3-8,53.2-20.7,61.8-26.2v31.7c-44,20.1-91,30.7-139.8,31.5l8.2-36.5c0.1-0.6,0.3-1.2,0.4-1.7l0.5-1.9
		c15.6,4.7,32.6,5.1,36.5,5c-0.1,0.4-0.1,0.8-0.1,1.2C536.7,824.2,536.6,824.6,536.6,825"/>
	<path class="st5" d="M536.6,400.4c1,10.6,9.2,105.9-8,196.6c-1.4,0.2-2.9,0.8-4.5,1.7c-1.1,0.6-2.4,1.3-3.8,2
		c-5.2,2.6-11.8,6-15.2,10.8c-0.9,0.2-2.2,0.5-3.7,1c8.1-72.1,10.1-126,10.3-158.8c0.2-29.7-1.1-61.3-4.4-65.1c-0.5-0.6-1.3-1-2.1-1
		c-2.9-0.1-5,3.2-6.3,6.6c-0.5,0-1.1,0-1.6,0c1.1-4.1,3.5-10.2,7.4-10.6c7.6-0.8,25.5,0.1,29,0.7c1.5,1.2,2.2,9.3,2.7,14.1
		L536.6,400.4"/>
	<path class="st1" d="M540.2,780.1c-20.3,0.8-33.3-1.3-38.3-2.3c5-20,10.1-41,14.4-59.5C522.2,730.3,534.8,757.5,540.2,780.1"/>
	<path class="st1" d="M523.1,677.6c3.4,3.9,7.1,6,10.8,6.9c-4.1,5.3-17.5,14.7-45.2,27.8c-25,11.8-55.9,23.9-78.7,30.8
		c-21.5,6.5-40.3,5-54.4-4.4c-14.5-9.6-23.4-27.2-25.9-51c-5.1-49.3-12.4-141.4-11.9-155.7c0.3-8.2,4.5-16.8,7.8-22.3
		c2,10.5,7,24.1,12.9,34.5c-6.1-16.4-9-33.8-9-42c0-2.3,0.2-3.9,0.7-4.5c3.2-3.4,26.6-28.1,33.3-35.2c2.7,2.6,8.2,7.1,17.7,10.6
		c7.6,2.8,16.6,3.8,24.1,4c3.1,9.7,18.9,53.8,53.6,82.3c1.5,7.6,3.1,14.8,4.6,21.1c8,32.5,12.3,44.8,13.5,47.9
		c-8.3,4.2-18.5,8.4-26.7,10c-3,0.6-7.6,0.5-13,0.3c-7.6-0.2-16.8-0.4-26.7,1c-1-0.2-3.2-0.7-6.1-1c-1.6-1-9-6.1-12.3-14.7
		c-1.4-3.9-3.8-6.8-7.1-11c-6.7-8.4-23.2-19.3-39.1-51c7,17,14.2,28.5,20.5,36.8c6.2,8.2,11.5,13.3,14.7,17.3
		c3.1,3.9,5.2,6.5,6.4,9.6c2.1,5.5,5.5,9.7,8.5,12.6c-11.7,0.3-28.1,3.9-41.4,19c6.7-4.7,14.1-8.1,21.2-10.4
		c7.1-2.3,13.8-3.4,19.1-3.6c-16.4,5.5-33.3,17.1-46.9,41.4c27.4-36.6,61.5-41,84.1-41c1.8,0,3.4,0,5,0.1c5.9,0.2,10.6,0.3,14-0.4
		c16-3.2,41.3-16.2,45.1-22c1.2-1.9,4-3.2,6.5-4.1l0,0.2C502.3,625.8,510.8,663.2,523.1,677.6 M411.9,588.7
		c15.1-4.6,23.8-20.6,19.2-35.7c-4.6-15.1-20.6-23.8-35.7-19.2c-15.1,4.6-23.8,20.6-19.2,35.7C380.8,584.7,396.8,593.3,411.9,588.7"
		/>
	<path class="st5" d="M490.8,716.8c9.1-4.3,16.9-8.3,23.5-12c-9.9,43.2-26.6,109.5-33.6,136.8c-0.8,3.2-2.9,5.8-5.7,7.3
		c-2.9,1.6-6.2,1.8-9.3,0.8l-0.4-0.1c-5.9-2-9.1-8.2-7.4-14.2C469.1,796.7,482,730,484,720C486.3,718.9,488.6,717.9,490.8,716.8
		 M477.4,836c0.4-1.9,0.2-3.9-0.6-5.5c-0.9-1.7-2.3-2.9-4-3.3c-3.4-0.8-7,1.9-7.9,5.9c-0.9,4,1.1,8,4.6,8.8c0.4,0.1,0.8,0.1,1.3,0.1
		c1.3,0,2.6-0.5,3.8-1.4C475.9,839.6,476.9,837.9,477.4,836"/>
	<path class="st1" d="M504.8,399.4c2.7,24,4.3,101.2-8.8,215.5c-1.5,1-2.9,2.2-3.9,3.7c-0.4,0.6-1.4,1.5-2.8,2.5
		c-3.3-11.1-14.5-49.4-17.7-73.2c-3.4-25.5-13.7-77.7-15.6-87.7c13.9-12.5,20-26.9,22.6-37.7c2.5-10.2,2.3-18.6,2-22.8
		C485.2,399.5,494.8,398.9,504.8,399.4"/>
	<path class="st5" d="M498.7,803c0.1,0.3,0.6,1.2-0.2,3.2c-0.4,0.8-0.9,2.5-1.5,4.9l-0.1,0l-2.1,8.4l-0.1,0.5
		c-7.3,30.2-21.7,99.1-24.6,115.1c-0.8,4.2-2.4,7-5,8.9c-9,6.2-31.1,2.1-67.7-4.6l-1-0.2c-23.8-4.4-45.3-9.9-60.6-15.6
		c-17.3-6.4-21.2-10.9-21.2-12.1c-0.4-6.9,9.9-66.1,16.3-95.8c5.1-23.8,7.4-32.8,15.5-37.7c-1.1,1.8-1.8,3.9-2.1,6.4
		c-0.6,5.4-0.3,19.2,0.6,32.1c1.9,25.2,4.5,27.3,5.7,28.2c4.8,3.7,35.6,11,50.4,11c1.8,0,3.4-0.1,4.6-0.3
		c13.6-2.6,33.8-37.2,39.7-47.7c5.1-9.2,13.3-10.8,17.6-10.9c-3.1,13.4-6.4,26.5-9.5,37.4c-2.5,8.5,2.2,17.4,10.6,20.3l0.4,0.1
		c1.7,0.6,3.5,0.9,5.3,0.9c2.7,0,5.5-0.7,7.9-2c4.1-2.2,7-6,8.2-10.5c2.5-9.9,6.3-24.8,10.6-42C497.2,801.4,498.3,802.1,498.7,803
		 M442.1,844.6c2-10.8,3.9-21.6,5.7-32.4c-2.9,10.6-5.5,21.2-7.9,31.9c-2.5,10.7-4.7,21.4-6.8,32.2c-2,10.8-4,21.6-5.3,32.5
		c-0.6,5.5-0.9,11.1-0.3,16.6c0.3,2.8,0.8,5.5,1.6,8.2c0.9,2.6,2,5.2,3.7,7.3c-0.8-1.1-1.3-2.4-1.8-3.7c-0.5-1.3-0.8-2.6-1.1-3.9
		c-0.6-2.6-0.9-5.4-1-8.1c-0.3-5.4,0.3-10.8,1.1-16.2c0.9-5.4,1.8-10.8,2.9-16.2c1-5.4,2-10.8,3.1-16.1l3.1-16.2L442.1,844.6
		 M402.3,897.3c3.5-17.6-8-34.7-25.5-38.2c-17.6-3.5-34.7,8-38.2,25.5c-3.5,17.6,8,34.7,25.5,38.2
		C381.6,926.3,398.8,914.9,402.3,897.3"/>
	<path class="st4" d="M486,623.5c-1.4,0.8-2.9,1.7-4.5,2.6c-1.4-3.7-5.6-16.4-13.1-46.7c-4.6-18.6-9.1-44.9-13.1-68
		c-3-17.4-5.7-33.2-8.1-44.2c1.9-1.3,3.7-2.6,5.4-4c2.7,13.8,12,61.3,15.2,85.3C471.1,573.5,483.1,614.2,486,623.5z"/>
	<path class="st1" d="M478.4,722.5c-1.2,6.2-3.5,17.9-6.4,32.1c-4.1-11-7.9-20.9-9.6-25.2C467.7,727.2,473.1,724.8,478.4,722.5"/>
	<path class="st1" d="M475.7,400c0.7,8.5,1,40-29.8,62c-0.6-2.5-1.2-4.6-1.8-6.3c-0.2-0.4-0.3-0.9-0.5-1.4
		c27.4-27.1,27.1-46.8,25.7-54.1l-0.1-0.3H475.7"/>
	<path class="st4" d="M474.4,831.7c0.5,1.1,0.7,2.4,0.4,3.7c-0.3,1.3-1,2.4-1.9,3.2c-0.9,0.7-1.8,0.9-2.8,0.7
		c-2-0.5-3.1-2.9-2.5-5.5c0.5-2.3,2.3-3.9,4-3.9c0.2,0,0.4,0,0.6,0.1C473.1,830.1,473.9,830.7,474.4,831.7z"/>
	<path class="st1" d="M464.4,401.2c1,5,2.1,22.8-22.9,48.2c-5.8-12.5-15.6-26-20-31.8c-0.7-0.9-0.7-2.2,0-3.1
		c0.8-1.1,19.5-26.7,15.3-35c-1.3-2.5-3-4-5.1-4.6c-1-0.3-1.9-0.3-2.7-0.2c-0.4-1.1-0.8-2.3-1.2-3.6c4-1,9.7-1.6,11.6,0.9
		c0.7,0.9,1.4,2,2.2,3.3c0,0.1,0.1,0.2,0.1,0.3c0.6,1.8,0.8,3.9,0.8,6c0,1-0.1,2.1-0.1,3.1c-0.1,1.1-0.2,2.1-0.4,3.2
		c-0.2,1-0.4,2.1-0.6,3.2l-0.8,3.1l1.4-3c0.4-1,0.8-2,1.2-3c0.4-1,0.7-2.1,1-3.1c0.3-1.1,0.6-2.2,0.8-3.3c0.1-0.3,0.1-0.6,0.1-0.9
		c3.6,5.3,9,12,18.1,18.7C463.9,399.9,464.3,400.5,464.4,401.2"/>
	<path class="st4" d="M456.3,545.7c0.5,2.5,0.9,5,1.4,7.5c-30-26.8-44.5-65.1-48.2-76c2.3,0,4.4-0.2,6.1-0.4
		C422.7,505.9,452.1,540.9,456.3,545.7z"/>
	<path class="st5" d="M463.7,791.7c-5,0-16.2,1.5-22.9,13.5c-11.5,20.7-27.8,43.6-36.3,45.3c-10.4,2-46.7-6.7-50.9-9.7
		c-3.1-4-5.8-43.8-4.4-55.8c0.9-7.7,8.9-10.5,10.4-11c9.7-0.9,20.6,1.6,32,4.2c1.8,0.4,3.6,0.8,5.4,1.2
		C411.9,782.6,452.7,789.7,463.7,791.7 M386.9,833.9c1.2-1.6,1.8-3.5,1.7-5.3c-0.1-1.9-0.9-3.5-2.4-4.6c-1.4-1-3.2-1.4-5.1-0.9
		c-1.8,0.4-3.4,1.6-4.5,3.1c-1.2,1.6-1.8,3.4-1.7,5.3c0.1,1.9,0.9,3.6,2.3,4.6c1,0.7,2.2,1.1,3.4,1.1c0.5,0,1.1-0.1,1.7-0.2
		C384.1,836.5,385.8,835.4,386.9,833.9"/>
	<path class="st6" d="M450.4,512.2c1.3,7.6,2.7,15.5,4.1,23.3c-10.4-13.2-31.1-41.7-34.8-64c-1-6.5-2.5-12.1-4-17.1
		c4-0.6,11.6-2.6,18.1-9.6c2.3,4.2,4.3,8.4,5.7,12.4C442.4,466,446.3,488.5,450.4,512.2"/>
	<path class="st6" d="M432.7,443.1c-6.3,7-13.9,8.9-17.7,9.5c-0.5-1.5-1.1-3-1.6-4.4c4.3-0.6,11.4-2.7,16.7-9.4
		C431,440.1,431.9,441.6,432.7,443.1"/>
	<path class="st1" d="M431,245L431,245c-0.9,0-1.6,0-2.2,0c2.8-2.3,4.4-4.8,4.6-7.5c0.4-3.7-1.8-6.7-3.3-7.9
		c-21.4-21.4-59.3-31.9-112.5-31.2c-35.4,0.5-66.1,6-72.2,7.2c-0.6-0.6-1.5-2-1.8-4.8c-0.5-5.9-1.6-17.2-1.6-17.2l0-0.2
		c0-0.1-0.4-3,3.7-6c0.3-0.2,30.4-20.8,109.4-10.4c69.5,9.1,92.6,43.6,93.5,48.1c-1.1,3.3-8,17.3-12.4,26.1
		C436.2,241.2,434,245,431,245"/>
	<path class="st6" d="M426.8,554.3c3.8,12.8-3.4,26.2-16.1,30.1c-12.7,3.8-26.2-3.4-30.1-16.2c-3.8-12.7,3.4-26.2,16.1-30.1
		C409.5,534.3,422.9,541.6,426.8,554.3z M420.3,567.5l-6.2-20.7L387,555l6.2,20.7L420.3,567.5z"/>
	<path class="st1" d="M408.1,141.8c19.5,5.6,48.3,17,55.5,36.8c3.7,10.1,3.8,18.4,0.3,24.6c-3,5.4-8,8-11,9.1
		c-0.4-1-1.1-2.3-2.1-3.8c-2.6-4-10.6-14.5-28.4-25c-18.3-10.8-40.7-18.1-66.6-21.5c-80.9-10.6-111.6,10.4-112.9,11.3
		c-0.4,0.2-0.7,0.5-1,0.8c-0.8-1.2-1.6-3-1.4-5.3c0.2-3-2.7-6.5-7.1-11.7c-6.5-7.8-15.5-18.5-13.9-28.4c1-6.2,12.6-17.9,30.3-26.9
		c13.7-6.9,49.3-21,84.4-2.6c24.7,12.9,36.9,23.1,47.7,32.2c12.6,10.6,25.6,20.2,51.3,24.6c-4.8-1.8-9.1-3.6-13-5.3
		c-3.9-1.8-7.3-3.5-10.5-5.3c2.3,0.8,4.6,1.5,7,2.1c2.4,0.7,4.9,1.3,7.3,1.8c-2.3-0.9-4.6-1.9-6.9-3c-2.3-1.1-4.5-2.2-6.7-3.4
		C409.6,142.6,408.9,142.2,408.1,141.8 M271.8,151.5c11.9-1.2,20.6-12,19.4-23.9c-1.3-12-12-20.7-23.9-19.4
		c-12,1.2-20.6,12-19.4,23.9C249.1,144,259.8,152.8,271.8,151.5"/>
	<polygon class="st4" points="413,552.4 417,565.8 395.1,572.4 390.9,558.6 405.5,566.4 	"/>
	<path class="st5" d="M416.4,224.8V293c0,0.4-0.3,0.7-0.7,0.7h-12.3c-0.4,0-0.7-0.3-0.7-0.7l-1.3-64.8c3.9-3.4,5.8-6.4,6.7-8.4
		C410.9,221.3,413.7,223,416.4,224.8"/>
	<path class="st1" d="M413.5,465.7c0.4,2,0.9,4.1,1.2,6.3c-7,0.7-21.1,0.5-31.7-3.4c-8.9-3.3-13.9-7.5-16.1-9.6l4.7-5.5
		c5.4,7.2,19.2,13.1,33,13.1C407.6,466.5,410.6,466.3,413.5,465.7"/>
	<polygon class="st4" points="410.9,550.6 404.4,562.8 392.2,556.2 	"/>
	<path class="st1" d="M403.5,217.6c-0.9,2-3.7,6.5-11.7,11.3c-10.7,6.4-32.5,14.3-76.2,15.6c-42.9,1.3-81.7,1.6-85.8-8.2
		c-2-4.6,3.4-13.1,16.3-25.8C255.1,208.9,347.9,192,403.5,217.6 M386.9,221.7c0-4.1-2.9-7.5-6.4-7.5c-3.5,0-6.4,3.4-6.4,7.5
		c0,4.1,2.9,7.5,6.4,7.5C384.1,229.2,386.9,225.9,386.9,221.7"/>
	<path class="st6" d="M375.7,864.2c14.8,2.9,24.4,17.4,21.5,32.2c-2.9,14.8-17.4,24.4-32.2,21.5c-14.8-2.9-24.4-17.4-21.5-32.1
		C346.5,870.9,360.9,861.2,375.7,864.2z M383.7,906.1l4.8-24l-31.4-6.2l-4.8,24L383.7,906.1z"/>
	<path class="st4" d="M385.9,828.7c0.1,1.2-0.3,2.4-1.1,3.5c-0.8,1.1-1.9,1.8-3,2.1c-1.1,0.3-2.1,0.1-2.8-0.5
		c-0.8-0.5-1.2-1.5-1.2-2.5c-0.1-1.2,0.3-2.4,1.1-3.5c0.8-1.1,1.9-1.8,3-2.1c0.3-0.1,0.7-0.1,1-0.1c0.7,0,1.3,0.2,1.8,0.6
		C385.4,826.7,385.8,827.6,385.9,828.7z"/>
	<polygon class="st4" points="384.4,887 381.4,902.6 355.9,897.5 359.1,881.5 369.5,897.1 	"/>
	<path class="st4" d="M380.5,216.9c2,0,3.7,2.2,3.7,4.8s-1.7,4.8-3.7,4.8s-3.7-2.2-3.7-4.8S378.5,216.9,380.5,216.9"/>
	<polygon class="st4" points="383.3,884.2 370.3,892.9 361.6,879.8 	"/>
	<path class="st5" d="M377.5,751.6l-3.8,17.8c-6.4-0.9-12.5-1.1-18.2,0l4.8-22.4C365.6,749.4,371.4,750.9,377.5,751.6"/>
	<path class="st2" d="M370.9,405.7c-2.5,0.5-5,0.8-7.5,1c-1.5,0.1-3,0.1-4.6,0.1c0.5-0.1,0.9-0.3,1.4-0.4
		c29.8-9.7,42.3-28.7,42.8-29.5c-0.1,0.1-4.1,4-11.7,9c-7.6,5-18.6,11.2-32.7,15.7c-6.2,2-12.2,3.1-18,3.5h-0.1c-2,0.1-4,0.2-6,0.2
		c-18,0-32-6.1-35.7-9.9c-5.2-5.4-14.2-19.9-28.2-58.4c-11.9-32.9-18.1-75.9-19.7-88.1c7.8,0.8,17.5,1.1,29.2,1.1
		c10.2,0,22-0.2,35.4-0.6c45.4-1.3,68.7-9.8,80.6-17.6l1.2,61.2c0.1,3.1,2.6,5.6,5.7,5.6h12.3c3.2,0,5.7-2.6,5.7-5.7v-38.9
		c0.5-1,2.3-3.5,6.4-3.9c4.5-0.5,13.7,0.2,19.9,5.7c4.5,4,6.7,10,6.7,17.9c0,22-17.6,27.3-32.4,27.9l-2.4,0.1v22.6l0,0.2
		c0,0.2,0.7,22.3-7.4,39.6c1.6-2.1,3.1-4.3,4.3-6.4c1.2-2.2,2.3-4.4,3.2-6.6c0.4,6.5,1.2,13.3,2.7,18.9c3.1,11.6,6.6,16.8,8.4,18.9
		c-2.4,5.8-7.1,14.2-13.3,22.6c-2,2.7-1.9,6.5,0.1,9.1c2.2,2.9,5.8,7.8,9.6,13.6c-4.9,7.5-12.5,8.9-15.8,9.2
		c-3-6.7-6.1-11.5-8.4-14.4c-1.9-2.4-5-3.5-8-2.8c-5.9,1.4-8.3,0-8.7-0.3l-0.3-0.2c-10.6-7.8-19.6-12.7-26.8-15.6
		c1.5-0.2,3-0.5,4.5-0.8c2.6-0.6,5.1-1.3,7.5-2.3c2.4-0.9,4.8-2.1,7-3.2C375.9,404.5,373.4,405.2,370.9,405.7 M444.2,274.1
		c1.3-0.3,2.2-1.7,1.9-3c-0.3-1.3-1.7-2.2-3-1.9l-4.2,1c1.2-6.1,2.2-9.6,2.2-9.7c0.4-1.3-0.3-2.7-1.7-3.1c-1.3-0.4-2.7,0.4-3.1,1.7
		c-0.1,0.5-3.6,12.3-5.2,31.2c-0.1,1.4,0.9,2.6,2.3,2.7l0.2,0c1.3,0,2.4-1,2.5-2.3c0.5-5.8,1.2-10.9,1.9-15.2L444.2,274.1"/>
	<path class="st1" d="M363.6,425.8c1.2,2.9,11.7,7.4,22.6,7.4c3.1,0,6.2-0.4,9.2-1.2l2.6-0.8c0.4,0.2,0.8,0.4,1,0.8
		c3.5,4.6,9.2,13.8,13.2,28.8c-17.2,3.6-35.6-5.8-37.8-12.5c-1.5-4.4-4.9-9.2-8.2-13.6c0.4,0.1,0.8,0.3,1.1,0.4
		c1.2,0.4,2.5,0.7,3.7,1c1.2,0.2,2.5,0.5,3.7,0.6c1.2,0.1,2.5,0.3,3.7,0.4l3.7,0.1l-3.6-0.8c-1.2-0.3-2.4-0.6-3.5-1
		c-1.2-0.4-2.3-0.8-3.4-1.2c-1.1-0.5-2.2-0.9-3.2-1.5c-2.1-1.1-4-2.4-5.6-4c-0.4-0.4-0.7-0.8-1.1-1.2c-0.3-0.4-0.7-0.9-0.9-1.3
		c-0.3-0.4-0.5-0.9-0.7-1.3c-0.1-0.2-0.2-0.4-0.2-0.6c0.6-1.8,3.4-4.3,5.8-5.9c0.5,0.3,1,0.5,1.5,0.8
		C364.9,421.1,362.7,423.5,363.6,425.8"/>
	<path class="st6" d="M287.7,128c1.1,10.1-6.3,19.1-16.3,20.1c-10,1-19.1-6.3-20.1-16.3c-1-10,6.3-19.1,16.3-20.1
		C277.7,110.6,286.7,117.9,287.7,128z M281,136.9l-1.7-16.3l-21.3,2.2l1.7,16.3L281,136.9z"/>
	<polygon class="st4" points="277.7,124.5 278.8,135.1 261.5,136.9 260.4,126 270.1,133.9 	"/>
	<polygon class="st4" points="276.4,122.9 269.8,131.1 261.6,124.4 	"/>
	<path class="st2" d="M250.6,277.8c1.7,9.4,3.9,20,6.5,30.8c-2.6-3.1-5.5-8.2-6.4-16.3C250,286.4,250.1,281.6,250.6,277.8z"/>
	<path class="st7" d="M733.5,508.5c-2,1.4-4.7,3.1-8.3,4.7v110c7.9-1.5,13.7-5.4,17.9-11.8c5-7.9,6.8-18.5,6.8-29.6
		c0-22.6-7.4-47.2-9.5-53.7C736.8,517.2,734.6,511.3,733.5,508.5"/>
	<path class="st7" d="M725.1,488.1v19.5c3.8-1.9,6.2-3.8,7.5-4.8l0,0C731.4,500.7,728.1,494,725.1,488.1"/>
	<path class="st7" d="M566.1,406.9v66.4h9.4c1.8-20.2,11.7-38.2,26.5-50.6C594.5,417.5,582.2,412.1,566.1,406.9"/>
	<path class="st8" d="M454.5,535.6c-10.4-13.2-31.1-41.7-34.8-64c-1-6.5-2.5-12.1-4-17.1c4-0.6,11.6-2.6,18.1-9.6
		c2.3,4.2,4.3,8.4,5.7,12.4c3,8.7,6.9,31.2,11,54.9C451.7,519.8,453,527.7,454.5,535.6 M415.1,452.5c-0.5-1.5-1.1-3-1.6-4.4
		c4.3-0.6,11.4-2.7,16.7-9.4c0.9,1.4,1.7,2.9,2.6,4.4C426.4,450.1,418.8,452,415.1,452.5 M535.3,598.1c-0.5-0.3-1-0.5-1.6-0.7
		c17.1-91.3,8.9-186.8,7.9-197.4c1.6,0.4,3.8,0.9,6.4,1.6c2.6,0.7,5.5,1.5,8.7,2.4v78.9h18.5v49c-12.5,6.4-16.4,17.3-17.4,20.8
		c-8.8,5.8-10,11.5-10,15.6c0,4.3-2.5,13.3-4.4,19.7c-0.4,1.3-0.6,2.6-0.7,3.8l-0.1,0C540.6,595,537.1,597.1,535.3,598.1
		 M403.3,293.7c-0.4,0-0.7-0.3-0.7-0.7l-1.3-64.8c3.9-3.4,5.8-6.4,6.7-8.4c2.9,1.5,5.7,3.2,8.4,5V293c0,0.4-0.3,0.7-0.7,0.7H403.3
		 M352.8,106.4c0,0,4.8,4.4,11,10.7c7.2,5.2,12.8,9.8,18.1,14.3c12.6,10.6,25.6,20.2,51.3,24.6c-4.8-1.8-9.1-3.6-13-5.3
		c-3.9-1.8-7.3-3.5-10.5-5.3c2.3,0.8,4.6,1.5,7,2.1c2.4,0.7,4.9,1.3,7.3,1.8c-2.3-0.9-4.6-1.9-6.9-3c-2.3-1.1-4.5-2.2-6.7-3.4
		c-0.8-0.4-1.5-0.8-2.3-1.3c19.5,5.6,48.3,17,55.5,36.8c3.7,10.1,3.8,18.4,0.3,24.6c-3,5.4-8,8-11,9.1c-0.4-1-1.1-2.3-2.1-3.8
		c-2.6-4-10.6-14.5-28.4-25c-14.8-8.8-32.3-15.2-52.1-19.1c-1.4,0.1-2.8,0.1-4.3,0.1c-14.5,0-30.4-2.8-30.4-2.8s8.1,1.9,18.2,5.1
		c0.4,0.1,0.8,0.1,1.3,0.2c69.5,9.1,92.6,43.6,93.5,48.1c-1.1,3.3-8,17.3-12.4,26.1c0,0-2.3,3.9-5.2,3.9v0c-0.2,0-0.5,0-0.7,0
		c-0.6,0-1.1,0-1.6,0c2.8-2.3,4.4-4.8,4.6-7.5c0.4-3.7-1.8-6.7-3.3-7.9c-13.9-13.8-34.6-23.1-61.8-27.7c-4.6,0.4-9.3,0.6-13.7,0.6
		c-10.4,0-18.9-0.8-18.9-0.8s2.2,0.8,5.2,2.4c22,1.3,44.3,5.1,62.6,13.5c-0.9,2-3.7,6.5-11.7,11.3c-10.7,6.4-32.5,14.3-76.2,15.6
		c-12.2,0.4-24,0.6-34.9,0.6c-4.2,0-8.3,0-12.1-0.1c-2.4,0.1-4.8,0.1-7.2,0.1l-5.9,2.2c2.8,0.2,5.8,0.4,9,0.5c0,0-1.3,0.2-3.2,0.2
		c-1.7,0-3.9-0.1-6.2-0.6l-4,1.5c0,0,0,0,0,0c7.8,0.8,17.5,1.1,29.2,1.1c10.2,0,22-0.2,35.4-0.6c45.4-1.3,68.7-9.8,80.6-17.6
		l1.2,61.2c0.1,3.1,2.6,5.6,5.7,5.6h12.3c3.2,0,5.7-2.6,5.7-5.7v-38.9c0.5-1,2.3-3.5,6.4-3.9c0.7-0.1,1.6-0.1,2.5-0.1
		c4.9,0,12.2,1.2,17.4,5.9c4.5,4,6.7,10,6.7,17.9c0,22-17.6,27.3-32.4,27.9l-2.4,0.1v22.6l0,0.2c0,0.2,0.7,22.3-7.4,39.6
		c1.6-2.1,3.1-4.3,4.3-6.4c1.2-2.2,2.3-4.4,3.2-6.6c0.4,6.5,1.2,13.3,2.7,18.9c3.1,11.6,6.6,16.8,8.4,18.9
		c-2.4,5.8-7.1,14.2-13.3,22.6c-2,2.7-1.9,6.5,0.1,9.1c2.2,2.9,5.8,7.8,9.6,13.6c-4.9,7.5-12.5,8.9-15.8,9.2
		c-2.7-6.1-5.5-10.5-7.7-13.5c0,0,0-0.1-0.1-0.1l4.4,11.9l4.1,7.7c0,0,3.7,11.3,4,22.9c0.3,11.6,18,40.4,23.7,48.9
		c5.7,8.5,17.7,21.2,17.7,21.2s-5.4-28-8.4-47.7c-3-19.7-5.7-28.3-5.7-28.3s-3.8-12.5-11-26.3c-7.1-13.7-14.8-20.5-11.6-27.1
		c1.3-2.8,3.7-6.2,6.9-8.1c5.3-8.5,11.5-20.3,8.9-25.4c-1.3-2.5-3-4-5.1-4.6c-0.6-0.2-1.2-0.2-1.8-0.2c-0.3,0-0.6,0-0.9,0.1
		c-0.4-1.1-0.8-2.3-1.2-3.6c1.9-0.5,4.2-0.9,6.3-0.9c2.3,0,4.3,0.5,5.3,1.8c0.7,0.9,1.4,2,2.2,3.3c0,0.1,0.1,0.2,0.1,0.3
		c0.6,1.8,0.8,3.9,0.8,6c0,1-0.1,2.1-0.1,3.1c-0.1,1.1-0.2,2.1-0.4,3.2c-0.2,1-0.4,2.1-0.6,3.2l-0.8,3.1l1.4-3c0.4-1,0.8-2,1.2-3
		c0.4-1,0.7-2.1,1-3.1c0.3-1.1,0.6-2.2,0.8-3.3c0.1-0.3,0.1-0.6,0.1-0.9c3.6,5.3,9,12,18.1,18.7c0.6,0.4,1,1,1.1,1.7
		c0.7,3.7,1.5,14.7-8.7,30.7c-0.3,2.4-1.2,4.6-2.4,6.8c0,0,2.8-4.1,6.6-4.1c10.8-16.9,10.4-28.9,9.3-34.3l-0.1-0.3h6.5
		c0.5,6.1,0.8,24.1-10.5,41.9c-0.6,2.4-2,4.5-2,4.5s4.2-5.2,10.5-9.6c2.4-5.1,4-10,5.1-14.3c2.5-10.2,2.3-18.6,2-22.8
		c3.1-0.2,8.9-0.5,15.5-0.5c2.8,0,5.7,0.1,8.6,0.2c1.9,17.4,3.3,62.4-1,129.2c-0.3,14.3-0.8,27.7-1.3,38.2c0-0.1,3.3-51,5.5-83
		c0.9-12.6,1.9-22.2,3.7-29.2c0-0.3,0-0.5,0-0.8c0.2-29.7-1.1-61.3-4.4-65.1c-0.5-0.6-1.3-1-2.1-1c0,0-0.1,0-0.1,0
		c-2.9,0-4.9,3.3-6.2,6.6c-0.5,0-1.1,0-1.6,0c1.1-4.1,3.5-10.2,7.4-10.6c2.2-0.2,5.2-0.3,8.5-0.3c8.2,0,18,0.6,20.5,1
		c1.5,1.2,2.2,9.3,2.7,14.1l0.2,2c0.4,4.4,2.1,23.4,2.6,50.7c3.7,9.6,4.9,26.4,2.8,54.4c-1.5,20.2-3.5,39.1-5.2,54.6
		c0,0-1.4,4.1-3.7,9.4c-1.3,9.2-2.7,18.4-4.5,27.5c-1.4,0.2-2.9,0.8-4.5,1.7c-1.1,0.6-2.4,1.3-3.8,2c-5.2,2.6-11.8,6-15.2,10.8
		c-0.9,0.2-2.2,0.5-3.7,1c0.9-8.2,1.8-16.2,2.5-23.9c-2-2.8-2.4-6-2.4-6l-2.2,32.7l7.4-2c0,0,1.4-1,3.7-2.7c0.5-0.4,0.9-0.8,1.4-1.3
		c2.6-2.3,5.7-4.2,8.7-5.7c0.4-0.3,0.8-0.6,1.3-0.8c3.9-2.5,6.8-3.2,8.8-3.2c0.1,0,0.3,0,0.4,0c1.6-0.5,2.6-0.7,2.6-0.7
		s-0.2,0.2-0.7,1c0.6,0.2,0.9,0.4,0.9,0.4s0.4,0.1,1,0.1c2.4,0,8.3-1,10.3-10.6c2.5-12.2,2.5-27.7,9.1-32.7c6.6-5,6.4-7.5,8.6-11
		c2.2-3.5,14.5-12,14.5-12v-52.5h-19.8v-80.9l-18.3-3.6c0,0,0.6-14.2-5.8-15.7c-2.7-0.6-8.6-0.8-14.3-0.8c-7.7,0-15.3,0.3-15.3,0.3
		s-4.5,2.3-6.7,7.5c-2.3,5.3-2.3,7.5-9.3,7.8c-7,0.2-23.2,1-23.2,1s-12.8-7.2-15.6-14c-2.7-6.8-8.2-16.3-13-16.5c-0.3,0-0.6,0-0.8,0
		c-4.6,0-9.6,1.8-9.6,1.8s-4.1-7.3-3.8-28.2c0.3-20.8,0.5-35.6,0.5-35.6s32.5-2.5,33.8-25.3c1.2-22.8-7.2-30-22-31.5
		c0,0,3.7-3.5,8.7-14.5c5-11,8.3-19.3,8.3-19.3s15.7-1.5,17.5-15.7c1.8-14.2-4.8-33.4-31.2-47.3c-26.4-13.9-43.5-14-50.5-18.5
		C380,128.2,352.8,106.4,352.8,106.4"/>
	<path class="st7" d="M541.6,400c1,10.6,9.2,106.1-7.9,197.4c0.6,0.2,1.2,0.5,1.6,0.7c1.8-0.9,5.4-3.1,7.4-6.4l0.1,0
		c0.1-1.2,0.3-2.4,0.7-3.8c1.9-6.4,4.4-15.5,4.4-19.7c0-4.1,1.2-9.9,10-15.6c1-3.5,4.8-14.4,17.4-20.8v-49h-18.5V404
		c-3.2-0.9-6.1-1.7-8.7-2.4C545.4,400.9,543.2,400.4,541.6,400"/>
	<path class="st9" d="M533.1,569.5c-3.9,8.8-10.5,20.9-18,22.6c-1.2,0.3-2.3,0.4-3.3,0.4c-3.9,0-6.3-1.8-7.8-3.9
		c-0.8,7.7-1.6,15.7-2.5,23.9c1.5-0.5,2.8-0.8,3.7-1c3.4-4.8,10-8.2,15.2-10.8c1.4-0.7,2.7-1.4,3.8-2c1.7-0.9,3.2-1.4,4.5-1.7
		C530.3,587.9,531.8,578.7,533.1,569.5 M513.2,383.3c-3.3,0-6.4,0.1-8.5,0.3c-3.9,0.4-6.3,6.5-7.4,10.6c0.5,0,1.1,0,1.6,0
		c1.3-3.3,3.4-6.6,6.2-6.6c0,0,0.1,0,0.1,0c0.8,0,1.5,0.4,2.1,1c3.2,3.8,4.5,35.4,4.4,65.1c0,0.3,0,0.5,0,0.8
		c2.5-10,6.4-14.5,13.4-14.5c0.4,0,0.8,0,1.2,0c5.6,0.4,10.1,3.4,13,11c-0.6-27.3-2.2-46.3-2.6-50.7l-0.2-2
		c-0.4-4.9-1.2-13-2.7-14.1C531.2,383.9,521.4,383.3,513.2,383.3"/>
	<path class="st7" d="M496.2,399.2c-6.6,0-12.3,0.3-15.5,0.5c0.3,4.1,0.5,12.6-2,22.8c-1,4.3-2.6,9.2-5.1,14.3c4.6-3.2,10.2-6,16-6
		c0.8,0,1.6,0.1,2.4,0.2c11,1.5,12.6,53.7,11.8,97.6c4.3-66.8,2.9-111.8,1-129.2C501.9,399.3,498.9,399.2,496.2,399.2"/>
	<path class="st8" d="M380.5,226.5c-2,0-3.7-2.2-3.7-4.8s1.7-4.8,3.7-4.8s3.7,2.2,3.7,4.8S382.6,226.5,380.5,226.5 M380.5,214.2
		c-3.5,0-6.4,3.4-6.4,7.5c0,4.1,2.9,7.5,6.4,7.5c3.5,0,6.4-3.4,6.4-7.5C386.9,217.6,384.1,214.2,380.5,214.2"/>
	<path class="st7" d="M475.7,400h-6.5l0.1,0.3c1.1,5.4,1.5,17.5-9.3,34.3c0,0,0.1,0,0.1,0c1,0,2,0.3,3,0.9c2.6,1.5,2.7,4.2,2,6.5
		C476.6,424.1,476.3,406.1,475.7,400"/>
	<path class="st7" d="M434.2,370.2c-2.1,0-4.4,0.4-6.3,0.9c0.4,1.3,0.8,2.5,1.2,3.6c0.3,0,0.6-0.1,0.9-0.1c0.6,0,1.2,0.1,1.8,0.2
		c2.1,0.6,3.8,2.2,5.1,4.6c2.6,5.1-3.6,16.9-8.9,25.4c1.6-1,3.5-1.6,5.6-1.6c3.5,0,7.5,1.8,12,6.6c8.8,9.4,11,16.3,10.1,22.2
		c10.2-16,9.4-27,8.7-30.7c-0.1-0.7-0.5-1.3-1.1-1.7c-9.1-6.7-14.5-13.3-18.1-18.7c0,0.3-0.1,0.6-0.1,0.9c-0.2,1.1-0.5,2.2-0.8,3.3
		c-0.3,1-0.6,2.1-1,3.1c-0.4,1-0.8,2.1-1.2,3l-1.4,3l0.8-3.1c0.2-1,0.4-2.1,0.6-3.2c0.2-1.1,0.3-2.1,0.4-3.2
		c0.1-1.1,0.1-2.1,0.1-3.1c0-2.1-0.3-4.1-0.8-6c0-0.1-0.1-0.2-0.1-0.3c-0.8-1.3-1.5-2.4-2.2-3.3
		C438.5,370.6,436.5,370.2,434.2,370.2"/>
	<path class="st10" d="M433.7,444.9c-6.5,7-14,9-18.1,9.6c1.6,5,3,10.7,4,17.1c3.6,22.3,24.3,50.7,34.8,64
		c-1.4-7.9-2.8-15.8-4.1-23.3c-4.1-23.8-8-46.2-11-54.9C438.1,453.4,436.1,449.1,433.7,444.9"/>
	<path class="st10" d="M430.1,438.7c-5.3,6.7-12.4,8.8-16.7,9.4c0.5,1.4,1.1,2.9,1.6,4.4c3.7-0.5,11.4-2.4,17.7-9.5
		C431.9,441.6,431,440.1,430.1,438.7"/>
	<path class="st7" d="M353.9,166.8c16.3,5.3,37.7,14.1,37.1,24.1c-0.4,7-10.9,9.9-22.6,11c27.3,4.6,48,13.9,61.8,27.7
		c1.4,1.3,3.6,4.2,3.3,7.9c-0.3,2.7-1.8,5.2-4.6,7.5c0.4,0,1,0,1.6,0c0.2,0,0.4,0,0.7,0v0c2.9,0,5.2-3.9,5.2-3.9
		c4.4-8.8,11.3-22.8,12.4-26.1c-0.9-4.5-24.1-39-93.5-48.1C354.7,166.9,354.3,166.9,353.9,166.8"/>
	<path class="st7" d="M363.8,117.1c11.1,11.4,26.6,29.2,25.6,38.8c-0.6,5.9-9,8-19,8.4c19.8,3.9,37.3,10.3,52.1,19.1
		c17.8,10.5,25.8,21,28.4,25c1,1.5,1.7,2.8,2.1,3.8c2.9-1.1,8-3.8,11-9.1c3.4-6.2,3.3-14.5-0.3-24.6c-7.2-19.8-36-31.2-55.5-36.8
		c0.8,0.4,1.5,0.9,2.3,1.3c2.2,1.2,4.4,2.3,6.7,3.4c2.3,1.1,4.6,2,6.9,3c-2.5-0.5-4.9-1.1-7.3-1.8c-2.3-0.6-4.7-1.4-7-2.1
		c3.1,1.8,6.6,3.5,10.5,5.3c3.9,1.8,8.2,3.5,13,5.3c-25.8-4.4-38.7-14-51.3-24.6C376.6,127,371,122.3,363.8,117.1"/>
	<path class="st9" d="M408,219.8c-0.9,2-2.8,5-6.7,8.4l1.3,64.8c0,0.4,0.3,0.7,0.7,0.7h12.3c0.4,0,0.7-0.3,0.7-0.7v-68.2
		C413.7,223,410.9,221.3,408,219.8"/>
	<path class="st7" d="M380.5,229.2c-3.5,0-6.4-3.4-6.4-7.5c0-4.1,2.9-7.5,6.4-7.5c3.5,0,6.4,3.4,6.4,7.5
		C386.9,225.9,384.1,229.2,380.5,229.2 M340.9,204.1c6.7,3.4,17.8,10.4,20.5,20.3c3.7,13.7-49.4,19.6-92.8,20.7
		c3.9,0.1,7.9,0.1,12.1,0.1c10.8,0,22.7-0.3,34.9-0.6c43.7-1.3,65.6-9.2,76.2-15.6c8-4.8,10.8-9.3,11.7-11.3
		C385.2,209.2,363,205.3,340.9,204.1"/>
	<path class="st8" d="M403.1,376.9c-0.1,0.1-4.1,4-11.7,9c-7.6,5-18.6,11.2-32.7,15.7c-1.2,0.4-2.3,0.7-3.5,1
		c-3.7,2.8-6.2,4.2-6.2,4.2s8.6,3.5,13,6.2c4.4,2.7,7.2,3.7,7.2,3.7s0.7-0.4,1.8-1.1c-4.3-2.4-8.2-4.3-11.7-5.8
		c1.5-0.2,3-0.5,4.5-0.8c2.6-0.6,5.1-1.3,7.5-2.3c2.4-0.9,4.8-2.1,7-3.2c-2.4,0.8-4.9,1.6-7.4,2c-2.5,0.5-5,0.8-7.5,1
		c-1,0.1-2,0.1-3,0.1c-0.5,0-1,0-1.6,0c0.5-0.1,0.9-0.3,1.4-0.4C390,396.7,402.5,377.7,403.1,376.9 M438.7,257.4
		c-1.1,0-2.1,0.7-2.4,1.8c-0.1,0.5-3.6,12.3-5.2,31.2c-0.1,1.4,0.9,2.6,2.3,2.7l0.2,0c1.3,0,2.4-1,2.5-2.3
		c0.5-5.8,1.2-10.9,1.9-15.2l6.3-1.5c1.3-0.3,2.2-1.7,1.9-3c-0.3-1.2-1.3-1.9-2.4-1.9c-0.2,0-0.4,0-0.6,0.1l-4.2,1
		c1.2-6.1,2.2-9.6,2.2-9.7c0.4-1.3-0.3-2.7-1.7-3.1C439.2,257.4,439,257.4,438.7,257.4"/>
	<path class="st11" d="M380.5,216.9c-2,0-3.7,2.2-3.7,4.8s1.7,4.8,3.7,4.8s3.7-2.2,3.7-4.8S382.6,216.9,380.5,216.9"/>
	<path class="st12" d="M433.6,293.1l-0.2,0c-1.4-0.1-2.4-1.3-2.3-2.7c1.6-18.9,5.1-30.7,5.2-31.2c0.3-1.1,1.3-1.8,2.4-1.8
		c0.2,0,0.5,0,0.7,0.1c1.3,0.4,2.1,1.8,1.7,3.1c0,0.1-1,3.6-2.2,9.7l4.2-1c0.2,0,0.4-0.1,0.6-0.1c1.1,0,2.2,0.8,2.4,1.9
		c0.3,1.4-0.5,2.7-1.9,3l-6.3,1.5c-0.7,4.3-1.4,9.4-1.9,15.2C436,292.1,434.9,293.1,433.6,293.1 M396.4,231.9
		c-12,7.9-35.3,16.3-80.6,17.6c-13.4,0.4-25.2,0.6-35.4,0.6c-11.7,0-21.4-0.3-29.2-1.1c1,0.2,38.5,9,76,9c6.1,0,12.2-0.2,18.2-0.8
		c1.6-0.1,3.1-0.2,4.6-0.2c38.2,0,34.5,48.3,36.2,87.1c1.3,30.1-20,50.2-30.9,58.4c1.2-0.3,2.3-0.7,3.5-1
		c14-4.6,25.1-10.7,32.7-15.7c7.6-5,11.6-9,11.7-9c-0.5,0.8-13.1,19.9-42.8,29.5c-0.5,0.1-0.9,0.3-1.4,0.4c0.5,0,1,0,1.6,0
		c1,0,2,0,3-0.1c2.5-0.2,5-0.5,7.5-1c2.5-0.5,4.9-1.2,7.4-2c-2.3,1.2-4.6,2.3-7,3.2c-2.4,1-4.9,1.7-7.5,2.3c-1.5,0.4-3,0.6-4.5,0.8
		c3.5,1.4,7.4,3.3,11.7,5.8c4.8-2.9,17.8-11.4,23.1-18.7c1.9-2.6,4-3.7,6.1-3.7c5,0,9.6,6.3,9.3,11.9c-0.5,7.8,2.3,13.5,7.7,23.7
		c2.8,5.3,1.1,7.9-2.2,7.9c-3.1,0-7.6-2.3-11.1-7.1c2.2,3,4.9,7.4,7.7,13.5c3.2-0.3,10.9-1.7,15.8-9.2c-3.7-5.7-7.4-10.6-9.6-13.6
		c-2-2.7-2.1-6.4-0.1-9.1c6.2-8.4,10.9-16.8,13.3-22.6c-1.8-2.1-5.3-7.3-8.4-18.9c-1.5-5.6-2.3-12.4-2.7-18.9
		c-0.9,2.2-1.9,4.4-3.2,6.6c-1.2,2.2-2.7,4.3-4.3,6.4c8.1-17.3,7.4-39.4,7.4-39.6l0-0.2v-22.6l2.4-0.1c14.8-0.6,32.4-5.9,32.4-27.9
		c0-7.8-2.3-13.9-6.7-17.9c-5.1-4.6-12.5-5.9-17.4-5.9c-0.9,0-1.8,0-2.5,0.1c-4.1,0.4-5.9,3-6.4,3.9V293c0,3.2-2.6,5.7-5.7,5.7
		h-12.3c-3.1,0-5.7-2.5-5.7-5.6L396.4,231.9"/>
	<polyline class="st8" points="502.5,566.7 502.5,566.8 502.5,566.8 	"/>
	<path class="st7" d="M693.8,752.5c-1.2,1-2.7,2.3-4.3,3.6c-7.5,6.2-17.2,13.4-20.4,15.7v34.1c11.7-7.2,23-15.1,33.8-23.6
		C700.6,771.3,696.1,758.5,693.8,752.5"/>
	<path class="st7" d="M678.8,723c-2.4,3.3-7,6.8-9.6,8.6v33.9c5.1-3.8,12.2-9.2,17.3-13.4c2.6-2.2,4.8-4.1,6.2-5.4l0.2-0.2l1.1-1.3
		c0-0.1,0-0.2,0-0.3c0-1.8-2.5-7.6-9.3-16.1C682,725.5,680,723.8,678.8,723"/>
	<path class="st7" d="M672.9,713.5h-3.8v11.9c3.3-2.6,5.8-5.1,6.1-6.1c0-0.1,0-0.3,0-0.5C675.2,717.4,674,715.1,672.9,713.5"/>
	<path class="st7" d="M575.2,664.2c-1,0.9-2,1.6-2.7,2.1c-0.9,4.1-5.1,6.5-10.8,9.6l-1.7,1c-0.6,0.3-1.3,0.7-2,1.1
		c-4.3,2.5-11.2,6.6-18.6,7c-1.7,3.4-5.8,7.4-12.5,12c4.2,9.9,23.1,53.7,31.1,67.2c3.1,5.2,5.2,10.1,6.7,14.4
		c7.7-1.2,42.7-7.7,66.4-27.7v-37.3h-50.3c-3.2,0-5.8-2.6-5.8-5.8V664.2"/>
	<path class="st8" d="M346.1,562.2L346.1,562.2c1.2,2.8,2.3,5.4,3.5,7.9c12.8,26.1,36.2,45.3,39.9,52.5c3.6,7,12.2,17.4,14.1,19.8
		c3.4,0.3,7.4,0.6,10.8,0.6c0,0,0.1,0,0.1,0c0.5,0,1.1,0,1.6,0c9.3-0.1,32.5-1.5,45.5-5.2c0,0,0,0,0,0c11.2-3.9,18.1-9.3,18.1-9.3
		l-13-49.8c0,0,2.2,8.5,1.1,18.1c5.4,20.5,8.4,29.2,9.4,31.7c-8.3,4.2-18.5,8.4-26.7,10c-1.7,0.3-4,0.4-6.7,0.4
		c-1.9,0-4-0.1-6.3-0.1c-2.7-0.1-5.7-0.1-8.8-0.1c-5.5,0-11.6,0.2-17.9,1.1c-1-0.2-3.2-0.7-6.1-1c-1.6-1-9-6.1-12.3-14.7
		c-1.4-3.9-3.8-6.8-7.1-11C378.5,604.7,362,593.9,346.1,562.2"/>
	<path class="st7" d="M346.1,562.2c1,2.7,2.2,5.4,3.5,7.9C348.4,567.6,347.2,565,346.1,562.2 M346.1,562.2L346.1,562.2
		c15.9,31.7,32.4,42.6,39.1,51c3.3,4.2,5.7,7.1,7.1,11c3.2,8.6,10.7,13.7,12.3,14.7c3,0.3,5.1,0.8,6.1,1c6.3-0.9,12.4-1.1,17.9-1.1
		c3.1,0,6.1,0.1,8.8,0.1c2.2,0.1,4.3,0.1,6.3,0.1c2.7,0,5-0.1,6.7-0.4c8.2-1.6,18.4-5.8,26.7-10c-0.9-2.5-4-11.1-9.4-31.7
		c-1.2,10.4-6.4,22-22.5,25.8c-4.9,1.2-9.3,1.7-13.4,1.7c-21.4,0-31.7-14.1-44.7-20C371.6,597.3,346.1,562.2,346.1,562.2"/>
	<path class="st8" d="M447.7,812.2c-1.9,6.7-3.6,13.5-5.2,20.3c0.2,3.6-0.9,10.4-3.4,20.8c-7.3,29.6-9,43.9-10.2,54
		c-0.8,7.2-2.1,21.4,2.4,31.4c0.5,0.8,1,1.5,1.6,2.2c-0.8-1.1-1.3-2.4-1.8-3.7c-0.5-1.3-0.8-2.6-1.1-3.9c-0.6-2.6-0.9-5.4-1-8.1
		c-0.3-5.4,0.3-10.8,1.1-16.2c0.9-5.4,1.8-10.8,2.9-16.2c1-5.4,2-10.8,3.1-16.1l3.1-16.2l3-16.2C444.1,833.8,446,823,447.7,812.2
		 M537.1,817.5c-3.3,0-20.4-0.3-35.4-4.9c0.6-2.2,1.1-3.8,1.4-4.4c1.5-3.4,0.9-6,0.1-7.5c-1.3-2.5-3.8-4-5.7-4.8
		c1.1-4.3,2.2-8.8,3.3-13.3c4.4,1,14.6,2.7,30.4,2.7c3.2,0,6.6-0.1,10.2-0.2c0.4,1.8,0.7,3.6,0.9,5.3c-0.4,2.5-2.7,17.1-4.4,27.1h0
		h-0.2C537.7,817.5,537.5,817.5,537.1,817.5 M471.9,754.6c-4.1-11-7.9-20.9-9.6-25.2c5.4-2.2,10.8-4.5,16.1-6.9
		C477.2,728.7,474.9,740.4,471.9,754.6 M531.3,780.3c-15.2,0-25.1-1.6-29.3-2.5c5-20,10.1-41,14.4-59.5c5.8,12,18.4,39.2,23.9,61.8
		C537.1,780.3,534.1,780.3,531.3,780.3 M517,701.2l-35,18.2l-21.8,9.3l12.5,33.3l5.7-26c0,0,1-0.4,2.5-0.4c1.5-7.6,2.6-13.2,3-15.6
		c2.3-1.1,4.6-2.1,6.9-3.2c9.1-4.3,16.9-8.3,23.5-12c-9.9,43.2-26.6,109.5-33.6,136.8c-0.8,3.2-2.9,5.8-5.7,7.3
		c-1.4,0.8-3,1.2-4.5,1.4c-1.2,0.7-2.5,1-3.7,1c-3.6,0-7-2.8-9.3-6.4c-4.9-7.8,7.2-50.6,7.2-50.6s-1.1-0.4-3-0.4
		c-4.3,0-12.7,2.3-21.6,17.1c-12.8,21.4-23.5,41.7-40.1,42.2c0,0,0.3,0,1,0c2,0,7-0.3,12.8-2.6c12.4-10.3,26.6-34.6,31.4-43.2
		c5.1-9.2,13.3-10.8,17.6-10.9l0,0l0,0c-3.1,13.4-6.4,26.5-9.5,37.4c-2.5,8.5,2.2,17.4,10.6,20.3l0.4,0.1c1.7,0.6,3.5,0.9,5.3,0.9
		c2.7,0,5.5-0.7,7.9-2c4.1-2.2,7-6,8.2-10.5c2.5-9.9,6.3-24.8,10.6-42c1,0.5,2.1,1.2,2.5,2.1c0.1,0.3,0.6,1.2-0.2,3.2
		c-0.4,0.8-0.9,2.5-1.5,4.9l-0.1,0l-2.1,8.4l-0.1,0.5c-7.3,30.2-21.7,99.1-24.6,115.1c-0.8,4.2-2.4,7-5,8.9
		c-3.1,2.2-7.8,3.1-14.1,3.1c-4.1,0-9-0.4-14.5-1.1c1,0.8,2.1,1.6,3.4,2.2c3.6,1.7,7.3,2.6,11,2.6c10.8,0,20.8-7.8,23.5-24.4
		C478,904,495,835,496,829c1-6,3.7-14.1,3.7-14.1s25,5.6,32.3,5.6c7.3,0,8.2-1.2,8.2-1.2l5.1-32.5c0,0-6.7-20.3-9.7-29.5
		c-3-9.3-19.8-46.1-19.8-46.1L517,701.2"/>
	<path class="st7" d="M500.8,782.7c-1.1,4.5-2.2,9-3.3,13.3c1.9,0.8,4.4,2.2,5.7,4.8c0.8,1.5,1.4,4.1-0.1,7.5
		c-0.3,0.7-0.8,2.2-1.4,4.4c15,4.6,32.1,4.9,35.4,4.9c0.4,0,0.6,0,0.6,0h0.2h0c1.7-10,4-24.6,4.4-27.1c-0.2-1.7-0.5-3.5-0.9-5.3
		c-3.6,0.2-7,0.2-10.2,0.2C515.3,785.3,505.2,783.6,500.8,782.7"/>
	<path class="st7" d="M516.4,718.3c-4.3,18.4-9.4,39.5-14.4,59.5c4.2,0.9,14.1,2.5,29.3,2.5c2.8,0,5.8-0.1,9-0.2
		C534.8,757.5,522.2,730.3,516.4,718.3"/>
	<path class="st9" d="M514.4,704.8c-6.6,3.7-14.4,7.7-23.5,12c-2.3,1.1-4.5,2.1-6.9,3.2c-0.5,2.4-1.5,7.9-3,15.6c0,0,0.1,0,0.1,0
		c3.4,0,9.2,1.9,12,13.8c4.2,17.4-9.2,67.5-14.7,87.4c-2.1,7.6-4.9,11.8-7.9,13.5c1.6-0.1,3.1-0.6,4.5-1.4c2.9-1.6,4.9-4.2,5.7-7.3
		C487.7,814.3,504.5,748,514.4,704.8"/>
	<path class="st9" d="M462.7,796.6c-4.2,0.2-12.4,1.7-17.6,10.9c-4.8,8.5-18.9,32.8-31.4,43.2c4.9-2,10.5-5.4,15.4-11.4
		c5.3-6.4,9.2-10.2,11.3-10.2c1.2,0,1.8,1.1,2,3.4c1.6-6.8,3.4-13.6,5.2-20.3c-1.7,10.8-3.7,21.6-5.7,32.4l-3,16.2l-3.1,16.2
		c-1.1,5.4-2.1,10.7-3.1,16.1c-1,5.4-2,10.8-2.9,16.2c-0.8,5.4-1.4,10.8-1.1,16.2c0.1,2.7,0.4,5.4,1,8.1c0.3,1.3,0.6,2.6,1.1,3.9
		c0.5,1.3,1,2.5,1.8,3.7c-0.6-0.7-1.1-1.4-1.6-2.2c1.2,2.8,2.9,5.3,5.2,7.2c5.6,0.7,10.4,1.1,14.5,1.1c6.3,0,11-0.9,14.1-3.1
		c2.7-1.9,4.3-4.7,5-8.9c2.8-16,17.2-84.9,24.6-115.1l0.1-0.5l2.1-8.4l0.1,0c0.7-2.4,1.2-4.1,1.5-4.9c0.9-1.9,0.4-2.9,0.2-3.2
		c-0.5-0.9-1.5-1.6-2.5-2.1c-4.3,17.1-8.1,32.1-10.6,42c-1.1,4.5-4.1,8.3-8.2,10.5c-2.4,1.3-5.2,2-7.9,2c-1.8,0-3.6-0.3-5.3-0.9
		l-0.4-0.1c-8.4-2.9-13.1-11.8-10.6-20.3C456.3,823.1,459.6,810,462.7,796.6"/>
	<path class="st7" d="M478.4,722.5c-5.3,2.3-10.6,4.6-16.1,6.9c1.7,4.3,5.5,14.2,9.6,25.2C474.9,740.4,477.2,728.7,478.4,722.5"/>
	<path class="st7" d="M631.2,757.3c-24,18.4-55.8,24.7-64.9,26.1c1.1,4.1,1.7,7.2,1.9,9l4.6,3.3l-2.7,19.5
		c33.6-8.9,56.2-23.5,61.1-26.9V757.3"/>
	<path class="st7" d="M631.2,794.4c-8.6,5.5-30.5,18.3-61.8,26.2c-0.3,3.5-1.1,11-2.1,14.2c-0.5,2-1.5,4.7-3.9,6.9
		c-1.2,1.1-2.6,1.9-4.2,2.5l-0.1,0c-1.7,0.7-3.5,1.1-5.3,1.1c-2,0-4.2-0.4-6.4-1.3c-0.2-0.1-0.4-0.2-0.7-0.3
		c-0.2-0.1-0.4-0.2-0.6-0.3l-0.3-0.1c-0.1-0.1-0.2-0.1-0.4-0.2c-3.9-2-6.2-5.1-7.5-8.6c-1.2-2.9-1.5-5.8-1.5-7.8
		c0-0.7,0.1-1.3,0.1-1.8c0.1-0.4,0.1-0.8,0.2-1.3c0-0.4,0.1-0.8,0.1-1.2c-0.2,0-0.5,0-0.8,0c-5.1,0-21-0.6-35.7-5l-0.5,1.9
		c-0.1,0.6-0.3,1.1-0.4,1.7l-8.2,36.5c48.8-0.8,95.8-11.4,139.8-31.5V794.4"/>
	<path class="st8" d="M509.8,643c0,0,2.3,7.4,6.5,14.3C513.2,649.3,509.8,643,509.8,643"/>
	<path class="st8" d="M545.6,652.8c0.1,0.9,0.1,2.4-0.3,4.1c7.4,8.2,15.8,10,20.8,10.4c-1.4,1.2-3.7,2.5-6.8,4.3l-1.7,1
		c-0.6,0.3-1.3,0.7-2.1,1.2c-5.5,3.2-11.4,6.3-17.1,6.3c-4,0-7.9-1.5-11.4-5.6c-2.6-3-5.1-7.3-7.3-12.2c-1.2-1.5-2.4-3.2-3.4-4.9
		c2,5.4,3.9,11.5,4.4,17.1c0.8,1.2,1.6,2.3,2.5,3.3c3.4,3.9,7.1,6,10.8,6.9c-4.1,5.3-17.5,14.7-45.2,27.8
		c-25,11.8-55.9,23.9-78.7,30.8c-8.7,2.6-17,3.9-24.8,3.9c-11.3,0-21.3-2.8-29.6-8.4c-3.9-2.6-7.4-5.7-10.4-9.4
		c-4.5-3.2-7.3-6.7-9.2-9.6c0.1,1.1,0.1,1.7,0.1,1.7s0,0,0,0c4.8,10.1,12.9,17.8,21.9,22.6l-3,15.1c0,0,1.2-1.3,3.3-2.4l2.1-9.6
		c5.3,2.4,11.1,3.9,17.2,4.6l-3.8,17.8c-2.6-0.4-5.2-0.6-7.7-0.7c-1.2,0.8-2.5,1.4-4,1.7l15.5,1.1l3.4-21.9v0c1.2,0,2.3-0.1,3.5-0.3
		c19.3-2.5,41.1-8.6,74.5-22.4c33.4-13.8,70.9-32.1,74.7-39.2c3.7-7.1,16.7-8.6,26.4-14.6c8.7-5.5,13.2-6.9,7-8.4
		c-2.4-0.2-5.2-1-8.6-2.4C551.7,659.5,547.9,655.8,545.6,652.8"/>
	<path class="st7" d="M545.3,656.9c-0.9,3.5-3.7,8.1-11.4,11c-1.2,0.5-2.4,0.7-3.5,0.7c-4.1,0-7.7-2.7-10.7-6.4
		c2.2,4.9,4.7,9.2,7.3,12.2c3.5,4.1,7.4,5.6,11.4,5.6c5.7,0,11.7-3.1,17.1-6.3c0.8-0.4,1.4-0.9,2.1-1.2l1.7-1
		c3.2-1.8,5.5-3.1,6.8-4.3C561.1,666.9,552.7,665,545.3,656.9"/>
	<path class="st7" d="M520.6,674.3c0.4,4.6-0.1,8.8-2.3,11.8c-8.6,11.7-52.2,25.7-113.2,45.2c-12.9,4.1-23.5,5.7-32.3,5.7
		c-12.9,0-21.7-3.5-27.7-7.8c3.1,3.7,6.5,6.9,10.4,9.4c8.3,5.6,18.4,8.4,29.6,8.4c7.7,0,16-1.3,24.8-3.9c22.8-6.9,53.7-19,78.7-30.8
		c27.7-13.1,41.1-22.5,45.2-27.8c-3.7-0.9-7.4-2.9-10.8-6.9C522.3,676.6,521.4,675.5,520.6,674.3"/>
	<path class="st9" d="M360.3,747l-2.1,9.6c1.4-0.7,3.2-1.4,5.3-1.4c1.1,0,2.4,0.2,3.7,0.6c5.7,2,3.7,9.4-1.2,12.8
		c2.5,0.1,5.1,0.3,7.7,0.7l3.8-17.8C371.4,750.9,365.6,749.4,360.3,747"/>
	<path class="st8" d="M695.2,464.9c-0.2,0-0.4,0-0.5,0c-3.1-0.7-5.1-1.9-5.8-3.8c-1.4-3.4,1.1-8.6,2.4-10.7
		c8.5-7,17.2-19.8,20.2-31.2c3.6,0.2,11.3,1.7,12.9,11.1c1.2,7.1-6.1,17.7-13.9,25.1C703.7,461.7,697.8,464.9,695.2,464.9
		 M678.5,451.1c-0.6,0-1.1-0.1-1.6-0.3c-1.9-0.7-2.9-2.5-3.4-3.7c7.2-9.5,15.4-30.8,14.3-45c1.4-0.8,4-1.9,7.1-1.9
		c2.9,0,6.2,0.9,9.6,4c2,1.8,2.9,4.6,2.8,8.3c-0.4,10.7-10.1,27-20.6,34.9C683.5,449.9,680.7,451.1,678.5,451.1 M672,390.8
		c-0.6,0-1.1,0-1.7,0.1c0,0,0,0,0,0c0.2,0,2,0.1,3.7,1.6c1.2,0.1,2.5,0.3,3.8,0.9c2.6,1,4.2,3.5,4.8,7.6
		c2.1,13.9-8.5,40.2-15.4,45.8c-1.2,1-2.7,1.9-4.3,1.9c-0.8,0-1.6-0.2-2.4-0.8c-0.1-0.1-0.2-0.2-0.3-0.3c-1,0.6-1.9,1-2.8,1
		c0,0,1.7,1,5.6,1c0.9,0,1.9-0.1,3.1-0.2c1.7-0.2,2.9-0.3,3.7-0.3c2,0,1.8,0.7,3.8,2c0.9,0.6,2.7,0.8,4.6,0.8c3.9,0,8.5-0.8,8.5-0.8
		s-2.9,11.1,4.9,14.4c0.8,0.3,1.6,0.5,2.6,0.5c8.3,0,21.8-12.8,28.4-22.5c7.3-10.7,3.2-19.6-2.4-23.6c-5.6-4-10.4-2.4-10.6-5.9
		c-0.2-3.5-4.2-14.6-11.3-14.6c-3.3,0-5.8,0.3-7.8,0.3c-2.3,0-3.8-0.4-4.8-2C684.1,395,677.4,390.8,672,390.8"/>
	<path class="st12" d="M711.3,419.1c-2.9,11.5-11.7,24.2-20.2,31.2c-1.3,2.1-3.8,7.3-2.4,10.7c0.8,1.9,2.7,3.1,5.8,3.8
		c0.2,0,0.3,0,0.5,0c2.6,0,8.6-3.1,15.2-9.5c7.8-7.4,15.1-18.1,13.9-25.1C722.6,420.8,714.9,419.3,711.3,419.1"/>
	<path class="st12" d="M695,400.3c-3.2,0-5.7,1.2-7.1,1.9c1.1,14.2-7.1,35.5-14.3,45c0.5,1.2,1.5,3,3.4,3.7c0.5,0.2,1,0.3,1.6,0.3
		c2.2,0,4.9-1.2,8.1-3.6c10.5-8,20.2-24.3,20.6-34.9c0.2-3.7-0.8-6.5-2.8-8.3C701.2,401.2,697.8,400.3,695,400.3"/>
	<path class="st12" d="M674.1,392.6c2.5,2.3,4.9,8.1,1.4,22.2c-4.9,20-10.5,29.7-15.2,32.8c0.1,0.1,0.2,0.2,0.3,0.3
		c0.8,0.6,1.6,0.8,2.4,0.8c1.6,0,3.1-0.9,4.3-1.9c6.9-5.6,17.6-31.8,15.4-45.8c-0.6-4.1-2.2-6.5-4.8-7.6
		C676.6,392.9,675.3,392.6,674.1,392.6"/>
	<path class="st8" d="M665.8,711.2l-31.4,0.7v20.9c0,0,0.7,0.1,1.8,0.5v-19.8h27.9v55.7v39.6c-2.6,1.6-5.3,3.1-7.9,4.6
		c0,1.7,0,2.6,0,2.6l9.6-6.5V711.2"/>
	<path class="st13" d="M664.1,713.5h-27.9v19.8c5.2,1.7,20,8.6,20,33c0,23.5,0,40.8,0,47.1c2.7-1.5,5.3-3,7.9-4.6v-39.6V713.5"/>
	<path class="st14" d="M593,541.4c0,0,3.6-37.9,36.9-15.6c33.4,22.3,39.6,4.8,49.7-13.1c10.1-17.9,27.7-6.6,27.7-6.6v-27.4
		c0,0-22.5-0.6-33.8,14.6c-11.2,15.2-18.7,36.7-41.2,16.7c-22.5-20-39.7-2.4-39.7-2.4L593,541.4z"/>
	<path class="st14" d="M593,623.7c0,0,3.6,37.9,36.9,15.6c33.4-22.3,39.6-4.8,49.7,13.1c10.1,17.9,27.7,6.6,27.7,6.6v27.4
		c0,0-22.5,0.6-33.8-14.6c-11.2-15.2-18.7-36.7-41.2-16.7c-22.5,20-39.7,2.4-39.7,2.4L593,623.7"/>
	<path class="st15" d="M365.9,771.6c-10.4,0-21.4,2.5-27.9,11.1c0,0-4.2,8.3-10.2,34.8c-6,26.5-15.8,90.7-15.8,92.5
		c0,1.7,0.8,4.8,15.4,11.9c0,0-1-0.6-2.2-2.7c-8.4-4-10.6-6.8-10.7-7.7c-0.4-6.9,9.9-66.1,16.3-95.8c5.1-23.8,7.4-32.8,15.5-37.7
		l0,0l0,0c-1.1,1.8-1.8,3.9-2.1,6.4c-0.4,3.7-0.4,11.5-0.1,20.1c0.6,0.8,1.2,2.1,1.7,4l5.2,31.6c0,0-0.2-4.4,0-10.9
		c-1.8-13.8-2.8-35.9-1.9-44.3c0.9-7.7,8.9-10.5,10.4-11c1.4-0.1,2.8-0.2,4.2-0.2c5.3,0,10.8,0.8,16.6,1.9c1.8-0.2,3.5-0.3,5-0.3
		c4.3,0,7.4,0.6,7.4,0.6S379.8,771.6,365.9,771.6"/>
	<path class="st16" d="M346.3,778c-8.1,4.9-10.4,13.9-15.5,37.7c-6.3,29.6-16.6,88.9-16.3,95.8c0,0.9,2.3,3.7,10.7,7.7
		c-2.7-4.8-6.2-17.7-0.7-50.2c6.5-38,13.2-65.4,18.1-65.4c0.5,0,1,0.3,1.5,0.9c-0.3-8.7-0.3-16.4,0.1-20.1
		C344.4,781.9,345.2,779.8,346.3,778"/>
	<path class="st16" d="M363.7,773.7c-1.4,0-2.8,0.1-4.2,0.2c-1.6,0.5-9.6,3.3-10.4,11c-0.9,8.4,0.1,30.5,1.9,44.3
		c0.4-11.2,2-28.5,8.2-40c5.1-9.4,13.8-12.7,21.1-13.6C374.6,774.5,369,773.7,363.7,773.7"/>
	<path class="st15" d="M333.4,714.4c0-0.1-0.1-0.2-0.1-0.2L333.4,714.4 M365,418c0,0-7,4.3-5.6,8.5c1.4,4.1,9.6,13.2,11.6,17.6
		c2,4.4,0.4,6.9-4.1,11.2c-4.4,4.3-36.6,35-38.4,39.3c-1.8,4.3,0.3,8.5-3.5,12c-3.8,3.5-8.2,14.6-8.8,30.5
		c-0.7,15.9,11,148.3,13.3,164c2.3,15.3,6.4,20,6.6,20.2c-1-2.2-1.9-4.5-2.7-6.9c0.2,0.6,0.9,2.6,2.6,5.2c-0.1-1.4-0.2-3.7-0.4-6.7
		c-3-7.4-5-15.8-5.9-25.2c-5.1-49.3-12.4-141.4-11.9-155.7c0.3-8.2,4.5-16.8,7.8-22.3c2,10.5,7,24.1,12.9,34.5
		c-6.1-16.4-9-33.8-9-42c0-2.3,0.2-3.9,0.7-4.5c3.2-3.4,26.6-28.1,33.3-35.2c2.4,2.4,7.3,6.3,15.3,9.7c7.6,1.3,15.8,2.7,15.8,2.7
		s-11.2-4.1-16.7-8.6c-5.8-2.8-9.3-5.8-11-7.5l4.7-5.5c1.4,1.9,3.3,3.6,5.7,5.2c0.4-0.1,0.9-0.2,1.3-0.2c2.6,0,5.7,1.6,5.7,1.6
		s-1.4-2-3.2-4.9c-3.6-2.2-6-4.7-6.7-6.9c-1.5-4.4-4.9-9.2-8.2-13.6c0.4,0.1,0.8,0.3,1.1,0.4c1.2,0.4,2.5,0.7,3.7,1
		c1.2,0.2,2.5,0.5,3.7,0.6c1.2,0.1,2.5,0.3,3.7,0.4l3.7,0.1l-3.6-0.8c-1.2-0.3-2.4-0.6-3.5-1c-1.2-0.4-2.3-0.8-3.4-1.2
		c-1.1-0.5-2.2-0.9-3.2-1.5c-2.1-1.1-4-2.4-5.6-4c-0.4-0.4-0.7-0.8-1.1-1.2c-0.3-0.4-0.7-0.9-0.9-1.3c-0.3-0.4-0.5-0.9-0.7-1.3
		c-0.1-0.2-0.2-0.4-0.2-0.6c0.6-1.8,3.4-4.3,5.8-5.9c0.5,0.3,1,0.5,1.5,0.8c-2.2,1.7-4.5,4.1-3.5,6.4c0.6,1.3,3.1,3,6.7,4.4
		c0.1-0.4,0.3-0.7,0.5-0.8c-2.9-1.1-6.3-2.7-6.3-4.5c0.1-3.1,3.7-6,3.7-6L365,418"/>
	<path class="st17" d="M363.6,462.6c-6.8,7.1-30.1,31.8-33.3,35.2c-0.5,0.6-0.7,2.2-0.7,4.5c0,8.2,2.9,25.6,9,42
		c-5.9-10.4-10.9-24-12.9-34.5c-3.2,5.5-7.5,14.1-7.8,22.3c-0.5,14.3,6.7,106.4,11.9,155.7c1,9.4,3,17.9,5.9,25.2
		c-1-19.4-3.7-67.4-5.5-89.3c-2.3-27.7-7.9-86.9-5.4-93.5c0.4-1,0.8-1.4,1.4-1.4c3.1,0,8.9,14.3,18.8,26c0,0-11.8-38.7-8.5-51.3
		c3.2-12.3,24.2-33.2,31.2-33.2c0.2,0,0.4,0,0.5,0c2.3,0.4,6.4,1.1,10.7,1.9C370.8,468.9,366,465,363.6,462.6"/>
	<path class="st17" d="M371.7,453.4l-4.7,5.5c1.7,1.7,5.2,4.7,11,7.5c-1.9-1.6-3.1-3.2-2.9-4.8c0.2-1.8,1.2-2.6,2.3-2.9
		C375,457.1,373.1,455.3,371.7,453.4"/>
	<path class="st17" d="M365.7,418.6c-2.4,1.6-5.3,4.1-5.8,5.9c0.1,0.2,0.1,0.4,0.2,0.6c0.2,0.4,0.4,0.9,0.7,1.3
		c0.3,0.5,0.6,0.9,0.9,1.3c0.4,0.4,0.7,0.8,1.1,1.2c1.6,1.6,3.5,2.9,5.6,4c1,0.6,2.1,1,3.2,1.5c1.1,0.4,2.3,0.8,3.4,1.2
		c1.2,0.3,2.3,0.7,3.5,1l3.6,0.8l-3.7-0.1c-1.2-0.1-2.5-0.2-3.7-0.4c-1.2-0.2-2.5-0.4-3.7-0.6c-1.2-0.3-2.5-0.6-3.7-1
		c-0.4-0.1-0.8-0.3-1.1-0.4c3.3,4.3,6.8,9.1,8.2,13.6c0.7,2.2,3.2,4.7,6.7,6.9c-2.3-3.8-5.2-9.1-6.2-13.1c-0.8-3.5-0.4-3.9,1.9-3.9
		c0.4,0,0.8,0,1.3,0c0.5,0,1,0,1.6,0c2.5,0,6.1-0.2,11-1.6c0,0-19.1-0.4-20.3-5.1c-0.2-0.6-0.2-1.1-0.1-1.4
		c-3.6-1.4-6.1-3.1-6.7-4.4c-1-2.3,1.3-4.7,3.5-6.4C366.7,419.1,366.2,418.8,365.7,418.6"/>
	<path class="st18" d="M333.3,714.3c0,0,0,0.1,0.1,0.2L333.3,714.3"/>
	<path class="st18" d="M333.4,714.4c0.7,2.4,1.6,4.7,2.7,6.9c0,0,0,0,0,0s0-0.6-0.1-1.7C334.3,717.1,333.6,715,333.4,714.4"/>
	<path class="st15" d="M371.5,429.2c-0.2,0-0.4,0-0.6,0.1c2.1,0.8,3.9,1.2,3.9,1.2S372.8,429.2,371.5,429.2"/>
	<path class="st15" d="M531.1,599.7c-2.5,0.7-6.4,2-10.5,4c-3.9,2.6-7.6,5.1-10.1,6.9c-6.9,5.9-7.6,3.9-13.1,8.8
		c-5.9,5.2-21.9,14.4-35.8,18.3c-3.7,1.3-7.8,2.4-12.3,3.1c-10.4,1.6-23.7,2-33.2,2.1c-0.4,0-0.8,0-1.2,0c-0.2,0-0.3,0-0.4,0
		c-0.3,0-0.5,0-0.8,0c-5.8,0-9.6-0.1-9.6-0.1s-0.1-0.2-0.4-0.5c-4.4-0.4-7.9-0.8-7.9-0.8s-18.3,0.6-25.3,5.6c0,0,1.2-0.5,2.9-0.5
		c0.8,0,1.6,0.1,2.5,0.4c0.1,0,0.2-0.1,0.3-0.1c7.1-2.3,13.8-3.4,19.1-3.6l0,0l0,0c-5.9,2-11.9,4.7-17.7,8.6
		c-3.8,5.8-16,15.8-16,15.8s3.5-2.7,10-6.2c21.7-15.6,44.3-17.9,60.9-17.9c1.8,0,3.4,0,5,0.1c2.3,0.1,4.4,0.1,6.4,0.1
		c3,0,5.6-0.1,7.7-0.6c16-3.2,41.3-16.2,45.1-22c1.2-1.9,4-3.2,6.5-4.1l0,0.2c-0.1,1.2,0,2.9,0.3,5.1c0.3-0.1,0.7-0.1,1-0.1
		c0.3,0,0.6,0,0.9,0.1l3,11.4c0,0-0.4-3.5,0.8-7.4c-0.7-4-1.1-7.1-1-8.8c0.4-5.4,8.7-9.6,14.7-12.7c1.5-0.7,2.8-1.4,4-2.1
		c1.7-1,3-1.2,4.1-1.2c0.1,0,0.2,0,0.3,0c-1.4,2-3,5-3.7,9.1c-0.3,1.8-0.4,4-0.1,6.4c2.4,1.5,4.1,4.1,5.1,6.3
		c-1.4-4.4-3.2-11.5-1.8-16.3c1.2-4.2,2.1-6.3,2.6-7.3C532.5,599.9,531.9,599.8,531.1,599.7"/>
	<path class="st17" d="M530.9,601.9c-0.1,0-0.2,0-0.3,0c-1,0-2.4,0.3-4.1,1.2c-1.2,0.6-2.5,1.3-4,2.1c-6.1,3-14.4,7.2-14.7,12.7
		c-0.1,1.7,0.2,4.8,1,8.8c1.1-3.8,3.7-8,9.6-10c1.4-0.5,2.7-0.7,3.8-0.7c1.9,0,3.5,0.6,4.9,1.4c-0.3-2.4-0.3-4.6,0.1-6.4
		C527.9,606.9,529.5,603.8,530.9,601.9"/>
	<path class="st17" d="M395.1,643.4c-5.2,0.2-12,1.4-19.1,3.6c-0.1,0-0.2,0.1-0.3,0.1c0.8,0.3,1.6,0.7,2.3,1.3
		c0.8,0.6,0.4,1.9-0.7,3.6C383.2,648.1,389.2,645.4,395.1,643.4 M502.9,617.3c-2.5,0.8-5.3,2.2-6.5,4.1c-3.8,5.8-29,18.8-45.1,22
		c-2.1,0.4-4.7,0.6-7.7,0.6c-1.9,0-4.1-0.1-6.4-0.1c-1.6,0-3.3-0.1-5-0.1c-16.5,0-39.2,2.3-60.9,17.9c12-6.4,34.3-15.4,64.5-15.4
		c0.5,0,1.1,0,1.6,0c0.4,0,0.9,0,1.3,0c22.4,0,36.8-5.9,46.6-11.9c9-5.5,14-10.9,17.7-11.8c-0.3-2.2-0.4-3.9-0.3-5.1L502.9,617.3"/>
	<path class="st18" d="M520.5,603.8c-3,1.5-6.1,3.4-8.7,5.7c-0.5,0.5-1,0.9-1.4,1.3C513,608.9,516.6,606.4,520.5,603.8 M533.6,599.1
		c0,0-1,0.2-2.6,0.7c0.8,0,1.5,0.2,1.9,0.3C533.4,599.2,533.6,599.1,533.6,599.1"/>
	<path class="st18" d="M403.6,642.4c0.3,0.3,0.4,0.5,0.4,0.5s3.9,0.1,9.6,0.1c0.3,0,0.5,0,0.8,0c0,0-0.1,0-0.1,0
		C410.9,643,407,642.7,403.6,642.4 M461.5,637.8C461.5,637.8,461.5,637.8,461.5,637.8c-12.9,3.7-36.2,5.1-45.5,5.2
		c9.5-0.1,22.8-0.5,33.2-2.1C453.7,640.2,457.9,639.1,461.5,637.8"/>
	<path class="st15" d="M532.2,623.7c0.8,2.4,1.5,4.1,1.5,4.1S533.2,625.9,532.2,623.7"/>
	<path class="st15" d="M242,104c0,0-29.1,16.9-24,31.1c5.1,14.2,19.6,26.7,20.9,33.4c1.3,6.7,0,19.6,0.7,20.9
		c0.7,1.3,3.6,19.4,3.6,19.4s-12.9,11.5-14.9,23.1c-1.7,9.8,7.7,13.8,25.9,15.4c-2.7-0.7-5.5-1.8-7.5-3.9
		c-9.2-1.3-15.3-3.5-16.8-7.1c-2-4.6,3.4-13.1,16.3-25.8c3.2-0.6,17.3-3.2,36.5-5.1c3.2-0.7,5.3-1,5.3-1s-2.5,0.2-6.1,0.2
		c-4.7,0-11.4-0.4-17.4-2.2c-9.6,1.3-16.4,2.6-18.9,3c-0.6-0.6-1.5-2-1.8-4.8c-0.5-5.9-1.6-17.2-1.6-17.2l0-0.2c0-0.1-0.4-3,3.7-6
		c0.1-0.1,5.8-4,18.6-7.5c3.7-2,7.5-3.4,10.5-4.3c-5.1,1.2-12.4,2.5-18.4,2.5c-1,0-1.9,0-2.8-0.1c-7.1,2.7-10.5,5-10.9,5.3
		c-0.4,0.2-0.7,0.5-1,0.8c-0.8-1.2-1.6-3-1.4-5.3c0.2-3-2.7-6.5-7.1-11.7c-6.5-7.8-15.5-18.5-13.9-28.4c0.7-4.4,6.6-11.5,16.3-18.4
		C237.5,108.2,239.6,106.2,242,104"/>
	<path class="st17" d="M264.4,169.9c-12.8,3.6-18.5,7.5-18.6,7.5c-4.2,2.9-3.8,5.8-3.7,6l0,0.2c0,0,1.1,11.4,1.6,17.2
		c0.3,2.8,1.2,4.2,1.8,4.8c2.5-0.5,9.3-1.7,18.9-3c-7-2.1-12.9-6.2-13.2-13.9C250.7,179.7,257.3,173.7,264.4,169.9"/>
	<path class="st17" d="M235.8,110.3c-9.7,7-15.6,14.1-16.3,18.4c-1.5,9.9,7.4,20.6,13.9,28.4c4.4,5.3,7.3,8.7,7.1,11.7
		c-0.1,2.3,0.6,4.1,1.4,5.3c0.3-0.3,0.6-0.5,1-0.8c0.4-0.3,3.8-2.6,10.9-5.3c-3.7-0.3-6.5-1.5-7.1-3.9
		C244.6,155.6,210.9,138.7,235.8,110.3"/>
	<path class="st17" d="M282.6,205.6c-19.2,1.9-33.3,4.4-36.5,5.1c-12.9,12.7-18.3,21.1-16.3,25.8c1.5,3.6,7.6,5.8,16.8,7.1
		c-2.7-2.6-4.3-6.6-3.4-12.7C245.4,215.1,271.2,208,282.6,205.6"/>
	<path class="st15" d="M254.1,247.3c0.4,0.1,0.7,0.2,1.1,0.2l0.3-0.1C255,247.4,254.5,247.4,254.1,247.3 M281.1,164.1
		c0,0-2.5,0.4-6.1,1.5C278.6,164.8,281.1,164.1,281.1,164.1"/>
	<path class="st18" d="M255.5,247.4l-0.3,0.1c2.3,0.5,4.5,0.6,6.2,0.6c1.9,0,3.2-0.2,3.2-0.2C261.3,247.8,258.3,247.7,255.5,247.4"
		/>
	<path class="st15" d="M509.5,518c-1.7,3.9-2.8,7.8-2.8,7.8v15.6c0.5-1.4,1.1-2.6,1.6-3.7C508.7,530.8,509.2,524.3,509.5,518
		 M539,496.9c-0.2,7.5-0.6,15.3-1.1,23.2c1.1,1.4,1.5,3.5,1.5,3.5l1.8-23.5C540.4,498.4,539.7,497.4,539,496.9"/>
	<path class="st16" d="M537.5,496.3c-2.6,0-5.1,4.9-7.6,9.7c-2.5,4.9-4.9,9.7-7.2,9.7c-0.9,0-1.7-0.7-2.6-2.2
		c-1.3-2.4-2.6-3.3-3.9-3.3c-2.6,0-5,3.9-6.7,7.7c-0.4,6.3-0.8,12.8-1.3,19.6c3.5-7.5,6.4-9.4,8.9-9.4c1.3,0,2.6,0.5,3.8,1
		c1.2,0.5,2.4,1,3.6,1c1.7,0,3.4-1,5.1-4.5c2.7-5.2,4.7-6.9,6.2-6.9c0.8,0,1.4,0.5,2,1.1c0.5-7.9,0.8-15.7,1.1-23.2
		C538.5,496.5,538,496.3,537.5,496.3"/>
	<path class="st15" d="M566.1,345.5c-1.1,2.1-1.6,4.2-1.6,4.2v7.2c0.5-1.2,1-2.1,1.6-2.9V345.5 M617.1,328.3c0,0-0.3,1-1,2.4v13.5
		c1-0.3,1.6-0.6,1.6-0.6L617.1,328.3"/>
	<path class="st19" d="M616.1,330.7c-1.6,3.1-5,8.2-11.1,8.2c-2.3,0-5.1-0.7-8.3-2.6c-2.6-1.5-4.7-2.1-6.4-2.1
		c-3.6,0-5.7,2.6-7.4,5.1c-1.7,2.6-3,5.1-5,5.1c-0.8,0-1.6-0.4-2.6-1.2c-1.5-1.3-2.9-1.9-4.1-1.9c-2.3,0-4,2.1-5.1,4.2v8.6
		c1.8-2.4,3.9-2.9,6.1-2.9c1.1,0,2.1,0.1,3.2,0.3c1,0.1,2.1,0.3,3,0.3c2,0,3.8-0.6,5-3c2.5-4.9,5.6-7,9.8-7c2.4,0,5.2,0.7,8.3,2
		c2.8,1.1,5.4,1.5,7.8,1.5c2.9,0,5.3-0.6,6.8-1.1V330.7"/>
	<path class="st8" d="M545.6,652.4c-0.2-0.2-0.3-0.4-0.2-0.5c0,0,0,0,0,0C545.4,651.8,545.5,652,545.6,652.4 M577.5,631.1
		c-0.3-1.8-1-2.8-2-3.2c0.7-0.4,1.4-0.9,2-1.3V631.1 M601.1,587.3c-3.8,0-10.4,6.4-10.4,6.4s3.1-1,6.4-1.4c1.2-0.8,2.3-1.6,3.4-2.5
		c1.7,0.1,6.1,1.1,7.6,7.7c1.6,7.5-15.6,17.2-23.7,20.4c-2.7,1.1-5.3,2.9-8,4.8c-4,2.9-10.9,9.6-15.7,10.3c0,0,0,0,0,0s0,0,0,0
		c0.4,0,0.8,0,1.2,0c4.6,0,10.4-1.5,13.4-3.4v23.8c-0.4,5.6-4.6,8.2-5.8,8.7c-0.3,0-0.8,0.1-1.5,0.1c-4,0-13.7-1.2-21.3-11.8
		c-2.3-1.3-3.7-2.8-3.7-2.8s0.6,2.2,2.7,5c0-0.2,0-0.3-0.1-0.4c1.6,2.2,10.6,10.2,19.1,11.8c0.9,0.2,1.7,0.3,2.4,0.5
		c0.6,0.1,1.2,0.1,1.7,0.1c5.7,0,8.3-3.4,8.8-8.1c0.3-3.5,0.5-9.1,0.5-14.2c0.4-1.1,1.1-2.7,2.1-4.6v-11.7c2.1-1.5,4.1-2.9,6-3.6
		c0.1,0,2.1-0.9,5-2.3v5.1c0.6-0.5,1.2-0.9,1.8-1.3l0-0.3c0,0,0,0.1,0,0.3c0.4-0.3,0.8-0.5,1.2-0.8v-4.5c4.7-2.6,10.5-6.2,14.5-10.6
		c2.2-3.7,2.8-6.3,2.8-6.3s-0.3,0.4-0.9,1.1c2.4-11.8-5.1-14.5-8.6-15.5C601.6,587.4,601.3,587.3,601.1,587.3"/>
	<path class="st13" d="M591.2,620.3c-2.9,1.4-4.9,2.3-5,2.3c-1.8,0.7-3.9,2.1-6,3.6v11.7c2-3.5,5.4-8,11-12.5V620.3"/>
	<path class="st13" d="M608.6,608.1c-3.9,4.3-9.7,8-14.5,10.6v4.5l0,0C601.8,618,606.2,612.3,608.6,608.1"/>
	<path class="st12" d="M575.2,629.6c-3,2-8.8,3.4-13.4,3.4c-0.4,0-0.8,0-1.2,0c0.1,0.1,11.6,10,1.7,17.1c-2.7,2-5.4,2.7-7.8,2.7
		c-3.1,0-5.8-1.1-7.8-2.3c7.6,10.6,17.3,11.8,21.3,11.8c0.7,0,1.2,0,1.5-0.1c1.2-0.6,5.4-3.1,5.8-8.7V629.6 M600.4,589.8
		c-1.1,0.9-2.3,1.7-3.4,2.5c1.1-0.2,2.2-0.3,3.3-0.3c3.1,0,5.5,0.9,4.5,4c-2.2,7.4-21,12.4-30.8,19.3c-9.6,6.8-13.4,17.4-13.5,17.7
		c4.8-0.7,11.7-7.4,15.7-10.3c2.7-1.9,5.3-3.8,8-4.8c8.1-3.2,25.4-12.9,23.7-20.4C606.6,590.9,602.2,590,600.4,589.8"/>
	<path class="st20" d="M545.6,652.4c0,0.1,0.1,0.3,0.1,0.4c2.2,3,6.1,6.7,12.8,9.5c3.4,1.4,6.2,2.2,8.6,2.4
		c-0.7-0.2-1.5-0.3-2.4-0.5C556.1,662.6,547.1,654.6,545.6,652.4"/>
	<path class="st20" d="M545.4,651.8C545.4,651.8,545.3,651.8,545.4,651.8c-0.1,0.1,0,0.3,0.2,0.5C545.5,652,545.4,651.8,545.4,651.8
		"/>
	<path class="st21" d="M593,623.7l0,0.3c0,0,0,0,0,0C593,623.8,593,623.7,593,623.7"/>
	<path class="st22" d="M380.6,229.2c3.5,0,6.4-3.4,6.4-7.5c0-4.2-2.9-7.5-6.4-7.5c-3.5,0-6.4,3.4-6.4,7.5
		C374.2,225.9,377,229.2,380.6,229.2z M380.6,216.9c2,0,3.7,2.2,3.7,4.8c0,2.7-1.7,4.8-3.7,4.8c-2,0-3.7-2.2-3.7-4.8
		C376.9,219.1,378.5,216.9,380.6,216.9z"/>
	<path class="st22" d="M469.5,841.9c0.4,0.1,0.8,0.1,1.3,0.1c1.3,0,2.6-0.5,3.8-1.4c1.4-1.1,2.5-2.8,2.9-4.7
		c0.4-1.9,0.2-3.9-0.6-5.5c-0.9-1.7-2.3-2.9-4-3.3c-3.4-0.8-7,1.9-7.9,5.9C464,837.2,466,841.1,469.5,841.9z M467.6,833.7
		c0.5-2.3,2.3-3.9,4-3.9c0.2,0,0.4,0,0.6,0.1c0.9,0.2,1.7,0.9,2.2,1.8c0.5,1.1,0.7,2.4,0.4,3.7c-0.3,1.3-1,2.4-1.9,3.2
		c-0.9,0.7-1.8,0.9-2.8,0.7C468.1,838.8,467,836.3,467.6,833.7z"/>
	<path class="st22" d="M377.3,836.1c1,0.7,2.2,1.1,3.4,1.1c0.5,0,1.1-0.1,1.7-0.2c1.8-0.4,3.4-1.6,4.5-3.1c1.2-1.6,1.8-3.4,1.7-5.3
		c-0.1-1.9-0.9-3.6-2.4-4.6c-1.4-1-3.2-1.4-5.1-0.9c-1.8,0.4-3.4,1.6-4.5,3.1c-1.2,1.6-1.8,3.4-1.7,5.3
		C375.1,833.4,375.9,835,377.3,836.1z M378.8,827.8c0.8-1.1,1.9-1.8,3-2.1c0.3-0.1,0.7-0.1,1-0.1c0.7,0,1.3,0.2,1.8,0.6
		c0.8,0.6,1.2,1.5,1.3,2.6c0.1,1.2-0.3,2.4-1.1,3.5v0c-0.8,1.1-1.9,1.8-3,2.1c-1.1,0.3-2.1,0.1-2.8-0.4c-0.8-0.6-1.2-1.5-1.3-2.6
		C377.6,830.2,378,828.9,378.8,827.8z"/>
	<path class="st22" d="M745.1,526.5c-4.2-13.1-6.6-19.1-7.6-21.4c0.7-2.1,0-3.9-0.6-4.8c-2-3.7-10.3-20.4-11.8-23.5
		c-0.4-8.3-2.1-16.4-5.1-24.1l-0.1-0.3c5.9-7.3,10.5-15.9,9.3-23c-1.9-11.3-10.7-14.8-16.9-15.3c0-0.5,0.1-0.9,0.1-1.4
		c0.2-5.2-1.3-9.5-4.4-12.2c-7.6-6.8-15.9-5.8-21-3.5c-1.6-5.1-4.7-7.3-7.2-8.3c-13.5-5.3-24.3,7.7-28.8,16.4c-0.2,0-0.5,0-0.7,0
		c-16.5,0-31.7,5.3-44.1,14.4c-8.1-6-21.5-12.1-39.9-17.9v-39.8h53v-43h-53h-3h-6.5v80c-7.1-2-12.8-3.4-15.5-4.1
		c-0.8-8.3-1.9-14.5-6.4-15.3c-3.6-0.6-22.4-1.6-30.5-0.7c-8,0.8-11.1,11.4-12,15.6c-7.6,0.1-13.3,0.6-14.3,0.7h-12.2
		c-10.9-8.2-15.7-15.9-19.3-21.6c-1-1.7-2-3.2-2.9-4.4c-3.9-5.2-12.4-3.9-16.8-2.8c-2.8-12.8-2.3-31.2-2.1-36.3
		c0.2-3.1,0.1-5.1,0.1-5.6v-17.8c22.5-1.6,34.8-13.2,34.8-32.7c0-9.3-2.8-16.6-8.4-21.6c-3.8-3.4-8.2-5.2-12.2-6.1
		c1.1-1.3,1.8-2.4,1.9-2.6c1.1-2.2,10-19.8,12.4-25.9c3.1-1,10.8-4,15.2-11.9c4.2-7.5,4.2-17.2,0-28.8c-11.5-31.9-69.9-43-77.2-44.3
		c-2-1.6-4-3.3-6-5c-11-9.2-23.4-19.6-48.6-32.8c-37.2-19.4-74.6-4.6-89,2.6c-18,9.1-31.6,21.6-33,30.6c-1.9,12.1,7.9,23.8,15,32.4
		c2.5,3,5.9,7,6,8.2c-0.3,4.3,1.6,7.6,3,9.4c-1.7,2.9-1.5,5.4-1.4,6.2c0.1,0.8,1.1,11.5,1.6,17.2c0.3,3.4,1.4,5.7,2.5,7.1
		c-14.1,14.1-19,23.1-16.1,30c2.2,5.3,8.9,8.4,20.9,10.1c0.4,3.1,1.2,9.2,2.5,17.2c-1.2,2.6-4.5,11.6-2.8,27.2
		c1.8,15.9,10.4,22.2,13.5,24c2,7.5,4.3,15,6.9,22c11.3,31.1,21.4,51.9,29.3,60.1c4.2,4.4,19.7,11.4,39.4,11.4c2,0,4-0.1,6-0.2
		c1.3,0.1,8.4,0.7,19.7,5.9c-2.5,2-5.4,4.9-5.8,8.1c-0.4,3,2.1,6.5,6.6,12.4c3,3.9,6.3,8.2,7.9,12l-7.5,8.6
		c-0.9,1-31.5,33.2-35.2,37.2c-1.3,1.4-1.9,4.1-1.9,7.5c-2.3,3.2-11.4,16.7-11.9,30c-0.5,14.4,6.7,107,11.9,156.4
		c2.6,25.3,12.3,44.1,28.1,54.6c1,0.6,1.9,1.2,2.9,1.8l-5.6,26.2c-0.2,0.1-0.4,0.1-0.6,0.2c-14.7,5.3-17.4,14.7-23.5,43.7
		c-6,28.1-16.8,89-16.4,97.1c0.6,11.4,43.6,24.5,86,32.3l1,0.2c24.5,4.5,42.1,7.8,54.5,7.8c7.4,0,13-1.2,17-4
		c3.8-2.6,6.1-6.6,7.1-12.1c2-11.5,8.8-44,15.2-73.4c49.1-0.6,96.5-11.1,141-31v0l3.5-1.6l1.5-0.7v0c9.5-4.4,18.9-9.3,27.9-14.6v0
		l3.7-2.2l0.1,0l1.2-0.7v0c13.2-8,26-16.8,38-26.5l1.1-0.9l-0.2-1.4l-0.1-0.6c-2.6-13.2-8.5-29.1-10.3-33.8c0.5-0.6,0.8-1,1-1.4
		c2.2-5.5-6.3-16.9-10-21.5c-3.6-4.5-6.5-6.5-8.4-7.5c-0.1-1.6-0.7-3.2-1.4-4.6h40.6c3.2,0,5.8-2.6,5.8-5.8v-79.5
		c9.7-1.7,17.1-6.4,22.1-14.2C763.8,588.3,748.4,536.6,745.1,526.5z M566.2,321.8h50v37h-50V321.8z M711.4,419.1
		c3.6,0.2,11.3,1.7,12.9,11.1c1.2,7.1-6.1,17.7-13.9,25.1c-7.1,6.8-13.4,9.9-15.7,9.4c-3.1-0.7-5.1-1.9-5.8-3.8
		c-1.4-3.4,1.1-8.6,2.4-10.7C699.7,443.3,708.5,430.6,711.4,419.1z M575.2,629.6v23.8c-0.4,5.6-4.6,8.2-5.8,8.8
		c-2.1,0.2-14.7,0.7-23.7-13c-10.5-16.1-14.9-30.9-13.7-37.3c1-5.3,3.5-8.1,4.3-8.8c1.1-0.5,4-1.9,6.8-4.4c0.1,0.3,0.1,0.5,0.2,0.7
		c0.5,1.5,2.3,2.2,3.7,1.4c1-0.6,1.4-1.8,1.1-2.9c-0.5-1.8-1-4.7,0.1-8.5c2.3-7.7,4.6-16.3,4.6-21.1c0-2.5,0-8.4,13.8-14.7
		c11.2-5.1,25.6-9,31.7-6.4c1.5,0.6,2,1.5,2.2,2.1c3.1,8.9-20.2,19.2-32.7,24.7l-2.7,1.2l-2.1,1.3c-5.2,3.2-8.9,8.5-10.2,14.4
		c-0.4,1.9-0.6,3.3-0.6,3.3c0,0,7.4-10.8,13.5-13.5l1.6-1l2.5-1.1c7.4-3.3,16.6-7.3,23.8-12c0.9-0.2,4-0.7,6.7,0.9
		c1.9,1.1,3.2,3,3.9,5.7c2.2,8.4-10.7,16.9-22.4,21.6c-8.1,3.3-22,10.5-24.8,22.5c4.4-6.8,19.5-15,26.6-17.9
		c3.5-1.4,10.8-4.7,16.8-9.4c1.7,0.1,6.1,1.1,7.6,7.7c1.6,7.5-15.6,17.2-23.7,20.4c-2.7,1.1-5.2,2.9-8,4.8c-4,2.9-11,9.6-15.7,10.3
		C565.3,633.3,571.9,631.8,575.2,629.6z M541.6,652c8.1,12.3,18.7,14.9,24.6,15.2c-1.4,1.2-3.7,2.5-6.8,4.3l-1.7,1
		c-0.6,0.3-1.3,0.8-2.1,1.2c-9.4,5.5-20.1,10.6-28.6,0.7c-11.2-13-19.6-49.1-19.1-56.5c0.4-5.4,8.7-9.6,14.7-12.7
		c1.5-0.7,2.8-1.4,4-2.1c1.7-0.9,3-1.2,4.1-1.2c0.1,0,0.2,0,0.3,0c-1.4,2-3,5-3.7,9.1C525.6,619.9,531.3,636.3,541.6,652z
		 M564.7,548.9c1.8-3.5,5-7.9,10.5-11.3v7.2C571.2,546.1,567.5,547.6,564.7,548.9z M594.2,618.7c8.6-4.7,20.8-13,18.7-22.3
		c-1.3-6.1-4.8-9.2-8.2-10.6c3.6-4,5.7-8.8,4.2-14.1c-1.1-4-3.2-7-6.2-8.7c-1-0.6-2-1-3-1.2c4.7-4.3,7.2-9,5.4-14.2
		c-0.8-2.3-2.5-4-4.9-5.1c-1.7-0.7-3.8-1.1-6.1-1.2v-61.2c0-30.9,25.1-56,56-56c2,0,4.1,0.1,6.1,0.3c-0.7,1.9-1.3,3.9-2.1,5.8
		c-3.3,8.4-1.8,17.7,3.5,21.6c1.6,1.2,3.4,1.8,5.3,1.8c2.3,0,4.7-0.9,7.1-2.6c1.1,1.8,2.7,3.7,5.3,4.6c1,0.4,2.2,0.6,3.3,0.6
		c1.7,0,3.4-0.4,5.3-1.2c-0.6,2.5-0.7,5.3,0.3,7.9c1.4,3.5,4.6,5.8,9.4,6.8c0.5,0.1,1,0.2,1.5,0.2c2.9,0,6.2-1.5,9.3-3.4
		c1.1,4.5,1.7,9.1,1.7,13.7v214.4h-112V618.7z M687.9,402.2c2.7-1.5,9.6-4.3,16.7,2c2,1.8,2.9,4.6,2.8,8.3
		c-0.5,10.6-10.1,27-20.6,34.9c-4,3-7.4,4.2-9.7,3.4c-1.9-0.7-2.9-2.5-3.4-3.7C680.8,437.7,689,416.4,687.9,402.2z M677.9,393.4
		c2.6,1,4.2,3.5,4.8,7.6c2.2,13.9-8.5,40.2-15.4,45.8c-1.8,1.4-4.4,2.8-6.7,1.1c-3-2.2-4.6-8.7-1.8-15.7c1.8-4.4,3.2-9,4.5-13.1
		c2.3-7.3,3.4-16.6,4.2-20c-2,1.4-3.6,3.9-5,7.2c-2-0.3-4-0.6-6-0.7C659.9,399.9,667.8,389.5,677.9,393.4z M650.2,410.2
		c3.5,0,7,0.3,10.5,0.8c-0.7,2-1.4,4.2-2.2,6.6c-0.4,1.3-0.9,2.7-1.3,4.1c-2.3-0.3-4.7-0.4-7-0.4c-32.5,0-59,26.5-59,59v61.2
		c-3.5,0.2-7.3,1-11,1.9v-63.2C580.2,441.6,611.6,410.2,650.2,410.2z M566.2,406.9c16.1,5.2,28.3,10.6,35.8,15.9
		c-14.7,12.4-24.6,30.3-26.5,50.6h-9.4V406.9z M559.7,321.8h3.5v40v114.5h12.1c-0.1,1.2-0.1,2.4-0.1,3.6h-15.5V321.8z M541.6,400
		L541.6,400c3.3,0.8,8.7,2.2,15.1,4v78.9h18.5v49c-12.5,6.4-16.4,17.3-17.4,20.8c-8.8,5.8-10,11.5-10,15.6c0,4.3-2.5,13.3-4.4,19.7
		c-0.4,1.3-0.6,2.6-0.7,3.8l-0.1,0c-2,3.3-5.5,5.4-7.4,6.4c-0.4-0.2-1-0.5-1.6-0.7C550.8,506.1,542.6,410.6,541.6,400z M504.7,383.6
		c7.6-0.8,25.5,0.1,29,0.7c1.5,1.1,2.2,9.2,2.7,14.1l0.2,2c1,10.6,9.2,105.9-8,196.6c-1.4,0.2-2.9,0.8-4.5,1.7
		c-1.1,0.6-2.4,1.3-3.8,2c-5.2,2.6-11.8,6-15.2,10.8c-0.9,0.2-2.2,0.5-3.7,1c8.1-72.1,10.1-126,10.3-158.8
		c0.2-29.7-1.1-61.3-4.4-65.1c-0.5-0.6-1.3-1-2.1-1c-2.9-0.1-5,3.2-6.3,6.6c-0.5,0-1.1,0-1.6,0C498.4,390.2,500.8,384,504.7,383.6z
		 M478.7,422.5c2.5-10.2,2.3-18.7,2-22.8c4.4-0.3,14.1-0.8,24.1-0.3c2.7,24,4.3,101.2-8.8,215.5c-1.5,1-2.9,2.2-3.9,3.7
		c-0.4,0.6-1.4,1.5-2.7,2.5c-3.3-11.1-14.5-49.4-17.7-73.2c-3.4-25.5-13.6-77.7-15.6-87.7C470.1,447.7,476.1,433.3,478.7,422.5z
		 M415.1,452.5c-0.5-1.5-1.1-3-1.6-4.4c4.3-0.6,11.4-2.7,16.7-9.4c0.9,1.4,1.7,2.9,2.6,4.4C426.5,450.1,418.8,452,415.1,452.5z
		 M433.8,444.9c2.3,4.2,4.3,8.5,5.7,12.4c3,8.7,6.9,31.2,10.9,54.9c1.3,7.6,2.7,15.5,4.1,23.3c-10.5-13.2-31.1-41.7-34.7-64
		c-1.1-6.4-2.5-12.1-4-17.1C419.8,453.9,427.3,451.9,433.8,444.9z M415.7,476.8c7.1,29.1,36.4,64,40.6,68.9c0.5,2.5,0.9,5,1.4,7.5
		c-30-26.8-44.5-65.1-48.2-76C411.9,477.2,414,477,415.7,476.8z M455.3,511.4c-3-17.4-5.7-33.2-8.1-44.2c1.9-1.3,3.7-2.6,5.4-4
		c2.7,13.8,12,61.3,15.2,85.3c3.3,25.1,15.4,65.7,18.2,75c-1.3,0.8-2.9,1.7-4.5,2.6c-1.4-3.7-5.6-16.4-13.1-46.7
		C463.9,560.8,459.3,534.6,455.3,511.4z M469.4,400.2l-0.1-0.3h6.4c0.7,8.5,1,40-29.8,62c-0.6-2.5-1.2-4.6-1.8-6.3
		c-0.2-0.4-0.3-0.9-0.5-1.4C471.1,427.2,470.8,407.5,469.4,400.2z M439.5,371.9c0.7,0.9,1.4,2,2.2,3.3c0,0.1,0.1,0.2,0.1,0.3
		c0.6,1.8,0.8,3.9,0.8,6c0,1-0.1,2.1-0.1,3.1c-0.1,1-0.2,2.1-0.4,3.2c-0.2,1-0.4,2.1-0.6,3.2l-0.8,3.2l1.4-3c0.5-1,0.8-2,1.2-3
		c0.4-1,0.7-2.1,1-3.1c0.3-1.1,0.6-2.2,0.8-3.3c0.1-0.3,0.1-0.6,0.1-0.9c3.6,5.3,9,12,18.1,18.7c0.6,0.4,1,1,1.1,1.7
		c1,5,2.1,22.8-22.8,48.1c-5.8-12.5-15.5-26-20-31.8c-0.7-0.9-0.7-2.2,0-3.2c0.8-1.1,19.5-26.7,15.3-35c-1.3-2.5-3-4-5.1-4.6
		c-1-0.3-1.9-0.3-2.7-0.2c-0.4-1.1-0.8-2.3-1.2-3.6C431.9,370.1,437.7,369.4,439.5,371.9z M436.3,241.1c0,0-2.3,3.9-5.2,3.9v0
		c-0.9,0-1.6,0-2.2,0c2.8-2.3,4.4-4.8,4.6-7.5c0.4-3.7-1.8-6.7-3.3-7.9c-21.4-21.4-59.3-31.9-112.5-31.2c-35.4,0.5-66.1,6-72.2,7.2
		c-0.6-0.6-1.5-2-1.8-4.8c-0.6-5.9-1.7-17.2-1.7-17.2l0-0.2c0-0.1-0.4-3,3.8-6c0.3-0.2,30.4-20.8,109.4-10.4
		c69.5,9.1,92.6,43.6,93.5,48.1C447.6,218.4,440.7,232.3,436.3,241.1z M416.4,224.8V293c0,0.4-0.3,0.7-0.7,0.7h-12.3
		c-0.4,0-0.7-0.3-0.7-0.7l-1.3-64.8c3.9-3.4,5.8-6.4,6.7-8.4C411,221.3,413.8,223,416.4,224.8z M240.5,168.8c0.2-3-2.7-6.5-7.1-11.7
		c-6.5-7.8-15.5-18.5-13.9-28.4c1-6.2,12.6-17.9,30.3-26.9c13.7-6.9,49.3-21,84.4-2.6c24.7,12.9,36.9,23.1,47.7,32.2
		c12.6,10.6,25.6,20.2,51.3,24.6c-9.7-3.6-17.2-7.1-23.5-10.6c2.3,0.8,4.6,1.5,7,2.2c2.4,0.7,4.9,1.3,7.3,1.8
		c-2.3-0.9-4.6-1.9-6.9-3c-2.3-1.1-4.5-2.2-6.7-3.4c-0.8-0.4-1.5-0.8-2.3-1.3c19.5,5.6,48.3,17,55.5,36.8
		c3.7,10.1,3.8,18.4,0.3,24.6c-3,5.4-8,8-11,9.1c-0.4-1-1.1-2.3-2.1-3.8c-2.6-4-10.6-14.5-28.4-25c-18.3-10.8-40.8-18.1-66.6-21.5
		c-80.9-10.6-111.6,10.4-112.9,11.3c-0.4,0.2-0.7,0.5-1,0.8C241.2,172.9,240.4,171.1,240.5,168.8z M229.8,236.4
		c-2-4.6,3.4-13.1,16.3-25.8c9-1.7,101.9-18.7,157.4,7c-0.9,2-3.7,6.5-11.7,11.3c-10.7,6.4-32.6,14.3-76.2,15.6
		C272.8,245.8,233.9,246.2,229.8,236.4z M250.7,292.3c-0.7-5.9-0.6-10.7-0.1-14.5c1.7,9.3,3.9,20,6.5,30.8
		C254.5,305.5,251.7,300.4,250.7,292.3z M359.3,410c1.5-0.2,3-0.5,4.5-0.8c2.6-0.6,5.1-1.3,7.5-2.3c2.4-0.9,4.8-2,7-3.2
		c-2.4,0.8-4.9,1.6-7.4,2c-2.5,0.5-5,0.8-7.5,1c-1.5,0.1-3.1,0.1-4.6,0.1c0.5-0.1,0.9-0.3,1.4-0.4c29.8-9.7,42.3-28.7,42.8-29.5
		c-0.1,0.2-16.3,15.6-44.4,24.8c-6.2,2-12.2,3.1-18,3.5l-0.1,0v0c-20.8,1.6-37.6-5.5-41.6-9.6c-5.2-5.4-14.2-19.9-28.2-58.4
		c-11.9-32.9-18.1-75.9-19.7-88.1c7.8,0.8,17.5,1.1,29.3,1.1c10.2,0,22-0.2,35.4-0.6c45.4-1.4,68.7-9.8,80.6-17.7l1.2,61.2
		c0.1,3.1,2.6,5.6,5.7,5.6h12.3c3.2,0,5.7-2.6,5.7-5.7v-38.9c0.5-1,2.3-3.5,6.4-3.9c4.5-0.5,13.7,0.2,19.9,5.7
		c4.5,4,6.7,10,6.7,17.9c0,22-17.6,27.3-32.4,27.8l-2.4,0.1v22.6l0,0.2c0,0.2,0.7,22.3-7.3,39.6c3.3-4.2,5.7-8.7,7.5-13
		c0.4,6.5,1.2,13.3,2.7,18.9c3.1,11.6,6.6,16.8,8.4,18.9c-2.4,5.8-7.1,14.2-13.3,22.6c-2,2.7-2,6.5,0.1,9.1
		c2.2,2.9,5.8,7.8,9.6,13.6c-4.9,7.4-12.5,8.9-15.8,9.2c-3-6.7-6.1-11.5-8.3-14.4c-1.8-2.4-5-3.5-8-2.8c-5.9,1.4-8.3,0-8.7-0.3
		l-0.3-0.2C375.6,417.8,366.5,413,359.3,410z M366.3,434.8c0.4,0.1,0.7,0.3,1.1,0.4c1.2,0.5,2.4,0.7,3.7,1c1.2,0.2,2.5,0.5,3.7,0.6
		c1.2,0.1,2.5,0.3,3.7,0.4l3.7,0.2l-3.6-0.8c-1.2-0.3-2.4-0.7-3.5-1c-1.2-0.4-2.3-0.8-3.4-1.2c-1.1-0.5-2.2-0.9-3.2-1.5
		c-2.1-1.1-4-2.4-5.6-4c-0.4-0.4-0.7-0.8-1.1-1.2c-0.3-0.4-0.7-0.8-0.9-1.3c-0.3-0.4-0.5-0.9-0.7-1.3c-0.1-0.2-0.2-0.4-0.2-0.6
		c0.6-1.8,3.4-4.3,5.9-5.9c0.5,0.3,1,0.5,1.5,0.8c-2.2,1.7-4.5,4.1-3.5,6.4c1.2,2.9,11.7,7.4,22.6,7.4c3.1,0,6.2-0.4,9.2-1.2
		l2.6-0.8c0.4,0.2,0.8,0.4,1,0.8c3.5,4.6,9.2,13.8,13.2,28.8c-17.2,3.6-35.6-5.8-37.8-12.5C373.1,443.9,369.6,439.1,366.3,434.8z
		 M371.7,453.4c5.4,7.2,19.2,13.1,33,13.1c3,0,6-0.3,8.9-0.9c0.4,2,0.8,4.1,1.2,6.3c-7,0.7-21.1,0.5-31.7-3.4
		c-8.9-3.3-13.9-7.5-16.1-9.6L371.7,453.4z M355.6,738.7c-14.5-9.6-23.4-27.2-25.9-51c-5.1-49.3-12.4-141.4-11.9-155.7
		c0.3-8.2,4.5-16.8,7.8-22.3c2,10.5,7,24.1,12.9,34.5c-7.8-21.1-10.4-43.9-8.3-46.5c3.2-3.4,26.6-28.1,33.3-35.2
		c2.7,2.6,8.2,7.1,17.7,10.6c7.6,2.8,16.6,3.8,24.1,4c3.1,9.7,18.9,53.8,53.6,82.3c1.5,7.6,3.1,14.8,4.6,21.1
		c8,32.5,12.3,44.8,13.5,47.9c-8.3,4.2-18.5,8.4-26.7,10c-3,0.6-7.6,0.5-12.9,0.3c-7.6-0.2-16.8-0.4-26.7,1c-1-0.2-3.1-0.7-6.1-1
		c-1.6-1-9.1-6.1-12.3-14.7c-1.4-3.9-3.8-6.8-7.1-11c-6.7-8.4-23.2-19.3-39.1-51c14.1,34,28.8,46,35.2,54.1c3.1,3.9,5.2,6.5,6.4,9.6
		c2.1,5.5,5.5,9.7,8.5,12.6c-11.7,0.3-28.1,3.9-41.4,19c13.4-9.5,29.8-13.6,40.3-14.1c-16.4,5.5-33.3,17.1-46.9,41.4
		c29.5-39.5,66.8-41.5,89.1-40.9c5.9,0.1,10.6,0.3,14.1-0.4c16-3.2,41.3-16.2,45.1-22c1.2-1.9,4-3.2,6.5-4.1l0,0.2
		c-0.5,8.3,7.9,45.7,20.3,60.1c3.4,3.9,7.1,6,10.8,6.9c-4.1,5.3-17.5,14.7-45.2,27.8c-25,11.8-55.9,23.9-78.7,30.8
		C388.5,749.6,369.7,748.1,355.6,738.7z M503.2,800.7c-1.3-2.5-3.8-4-5.7-4.7c1.1-4.3,2.2-8.8,3.3-13.3c4.4,0.9,14.6,2.7,30.4,2.7
		c3.2,0,6.6-0.1,10.2-0.2c0.4,1.8,0.7,3.6,0.9,5.3c-0.4,2.5-2.7,17.1-4.4,27.1l0,0l-0.2,0c-0.2,0-19.3,0.2-36-4.9
		c0.6-2.2,1.1-3.8,1.4-4.4C504.6,804.8,504,802.2,503.2,800.7z M470,763.8c-1.6,7.4-3.3,15.2-5,23c-10.3-1.8-51.8-9.1-67-12.4
		c-1.8-0.4-3.6-0.8-5.4-1.2c-4.8-1.1-9.4-2.1-14-2.9l3.9-18.2c0.9,0,1.7,0.1,2.6,0.1c8.2,0,17-1.4,26.2-4.2
		c13.6-4.1,29.9-10,46.3-16.6C459.8,736.6,465.1,750.2,470,763.8z M462.3,729.4c5.4-2.2,10.8-4.6,16.1-6.9
		c-1.2,6.2-3.5,17.9-6.4,32.1C467.9,743.6,464,733.7,462.3,729.4z M484,720c2.3-1.1,4.6-2.1,6.9-3.2c9.1-4.3,16.9-8.3,23.5-12
		c-9.9,43.2-26.6,109.5-33.6,136.8c-0.8,3.2-2.8,5.8-5.7,7.3c-2.9,1.6-6.2,1.8-9.3,0.8l-0.4-0.1c-5.9-2-9.1-8.3-7.4-14.2
		C469.2,796.7,482.1,730,484,720z M516.4,718.3c5.8,12,18.4,39.2,23.9,61.8c-20.3,0.8-33.3-1.3-38.3-2.3
		C507,757.8,512.1,736.8,516.4,718.3z M541.9,823.8c0.2-0.9,0.3-1.9,0.5-3l0.7-2.7l-0.2,0c1.4-8.5,3.3-20.2,4-25l13.8,0.9
		c-0.6,5.2-2.2,17.7-5.2,32c-1.2,5.8-3.3,9.4-5.9,10.4c-1.9,0.7-3.9,0-5.2-0.6c-0.8-1-1.4-2.2-1.8-3.3
		C541.6,829.5,541.7,826.1,541.9,823.8z M559.4,826.9c2.8-13.3,4.4-25.1,5.1-31l3,2.2l-2.6,18.5l-0.1,0l-0.1,1.7l-1.9,13.5l0,0.3
		c0,0,0,0.5-0.2,1.3c-0.7,2.1-2.4,4.9-5.1,6.2c-1.3,0.5-2.9,0.6-4.7,0.5c-0.4,0-0.8-0.1-1.2-0.1C555.3,838.3,558,833.9,559.4,826.9z
		 M547,788.1c-4.7-29.4-25.4-70.8-28.8-77.4c0.7-3.2,1.5-6.4,2.1-9.4c1.2-0.7,2.3-1.4,3.3-2.1c4.8,11.2,23,53.4,31,66.9
		c5.5,9.2,7.9,17.8,9,23L547,788.1z M360.3,747c5.3,2.4,11.1,3.9,17.2,4.6l-3.8,17.8c-6.3-0.9-12.5-1.1-18.2,0L360.3,747z
		 M349.2,784.9c0.9-7.7,8.8-10.5,10.4-11c9.7-0.9,20.6,1.6,32,4.1c1.8,0.4,3.6,0.8,5.4,1.2c15,3.3,55.7,10.5,66.7,12.4
		c-5,0-16.2,1.5-22.9,13.5c-11.5,20.7-27.8,43.6-36.3,45.3c-10.4,2-46.7-6.7-50.9-9.7C350.5,836.7,347.8,796.9,349.2,784.9z
		 M470.2,935.1c-0.7,4.2-2.3,7-5,8.9c-9,6.2-31.1,2.1-67.7-4.6l-1-0.2c-23.8-4.4-45.3-9.9-60.6-15.6c-17.3-6.4-21.2-10.9-21.3-12.1
		c-0.3-6.9,9.9-66.1,16.3-95.8c5.1-23.8,7.4-32.8,15.5-37.7c-1.1,1.8-1.8,3.9-2.1,6.4c-0.6,5.4-0.3,19.2,0.6,32.1
		c1.8,25.2,4.5,27.3,5.7,28.2c4.8,3.7,35.6,11,50.4,11c1.8,0,3.4-0.1,4.6-0.3c13.6-2.6,33.8-37.2,39.7-47.7
		c5.1-9.2,13.3-10.8,17.6-10.9c-3.1,13.4-6.4,26.5-9.5,37.4c-2.5,8.5,2.2,17.4,10.6,20.3l0.4,0.1c1.7,0.6,3.5,0.9,5.3,0.9
		c2.7,0,5.5-0.7,7.9-2c4.1-2.2,7-6,8.2-10.5c2.5-9.9,6.3-24.8,10.6-41.9c1,0.5,2.1,1.2,2.5,2.1c0.2,0.3,0.6,1.2-0.2,3.2
		c-0.4,0.8-0.9,2.5-1.5,4.9l-0.1,0l-2.1,8.4l-0.1,0.5C487.4,850.2,473,919.1,470.2,935.1z M631.2,826.1
		c-44,20.1-91.1,30.7-139.8,31.5l8.2-36.5c0.1-0.6,0.3-1.2,0.4-1.7l0.5-1.9c15.6,4.7,32.6,5.1,36.5,5c-0.1,0.4-0.1,0.8-0.1,1.2
		c-0.1,0.5-0.2,0.9-0.2,1.3c-0.3,1.7-0.2,5.7,1.4,9.6c1.3,3.5,3.6,6.7,7.5,8.6c0.1,0.1,0.2,0.1,0.4,0.2c0.1,0,0.2,0.1,0.3,0.1
		c0.2,0.1,0.4,0.2,0.6,0.3c0.2,0.1,0.4,0.2,0.7,0.3c4.3,1.6,8.2,1.7,11.7,0.2l0.1,0c1.6-0.6,3-1.4,4.2-2.5c2.4-2.2,3.4-4.9,3.9-6.9
		c1-3.2,1.8-10.7,2.1-14.2c31.3-8,53.2-20.7,61.8-26.2V826.1z M631.2,788.4c-4.9,3.4-27.5,18-61.1,26.9l2.8-19.5l-4.6-3.3
		c-0.2-1.8-0.7-5-1.9-9c9-1.5,40.9-7.7,64.9-26.1V788.4z M631.2,750.8c-23.7,20-58.7,26.5-66.4,27.7c-1.5-4.3-3.7-9.3-6.7-14.4
		c-8-13.5-26.9-57.3-31.1-67.2c6.6-4.6,10.8-8.6,12.5-12c7.4-0.4,14.3-4.5,18.6-7c0.7-0.4,1.4-0.8,2-1.1l1.7-0.9
		c5.7-3.1,9.9-5.5,10.7-9.6c0.7-0.4,1.7-1.1,2.7-2.1v43.6c0,3.2,2.6,5.8,5.7,5.8h50.3V750.8z M664.2,769.2v39.6
		c-9.1,5.4-18.4,10.4-27.9,14.9V713.5h27.9V769.2z M702.9,782.2c-10.8,8.5-22.1,16.4-33.8,23.6v-34.1c3.2-2.3,13-9.6,20.4-15.7
		c1.6-1.3,3.1-2.5,4.3-3.6C696.1,758.5,700.6,771.3,702.9,782.2z M684.7,728.7c7.3,9,9.6,15,9.3,16.4l-1.1,1.3l-0.2,0.2
		c-1.4,1.3-3.6,3.3-6.2,5.4c-5.2,4.2-12.2,9.6-17.3,13.4v-33.9c2.6-1.8,7.3-5.3,9.6-8.6C680,723.8,682.1,725.5,684.7,728.7z
		 M669.2,725.4v-11.9h3.8c1.3,1.8,2.6,4.3,2.3,5.8C675,720.3,672.5,722.8,669.2,725.4z M720.2,707.8c0,0.4-0.3,0.8-0.8,0.8h-50.3
		h-37.9H581c-0.4,0-0.7-0.3-0.7-0.8v-81.6c2.1-1.5,4.1-2.9,6-3.6c0.1,0,2.1-0.9,5-2.3v77.3h118V480.1c0-5.3-0.7-10.5-2.1-15.5
		c3-2.2,5.5-4.4,6.7-5.6c0.8-0.7,1.5-1.5,2.3-2.3c2.7,7.5,4,15.4,4,23.4V707.8z M725.2,488.2c2.9,5.9,6.3,12.6,7.4,14.7l0,0
		c-1.2,1-3.7,2.9-7.5,4.8V488.2z M743,611.4c-4.1,6.4-10,10.3-17.9,11.8V513.2c3.6-1.6,6.4-3.3,8.3-4.7c1.1,2.8,3.4,8.7,6.9,19.6
		C743.5,537.8,758.4,587.5,743,611.4z"/>
	<path class="st22" d="M433,876.4c-2,10.8-4,21.6-5.3,32.5c-0.6,5.5-0.9,11.1-0.3,16.6c0.3,2.8,0.8,5.5,1.6,8.2
		c0.9,2.6,1.9,5.2,3.7,7.4c-0.8-1.1-1.3-2.4-1.8-3.7c-0.5-1.3-0.8-2.6-1.1-3.9c-0.6-2.6-0.9-5.4-1-8.1c-0.3-5.4,0.3-10.8,1.1-16.2
		c0.9-5.4,1.8-10.8,2.9-16.1c1-5.4,2-10.8,3.1-16.1l3.1-16.1l3-16.2c2-10.8,3.9-21.6,5.6-32.4c-2.9,10.6-5.5,21.3-7.9,32
		C437.4,854.8,435.1,865.6,433,876.4z"/>
	<path class="st22" d="M433.4,293.1l0.2,0c1.3,0,2.4-1,2.5-2.3c0.5-5.8,1.2-10.9,1.9-15.2l6.3-1.5c1.3-0.3,2.2-1.7,1.9-3
		c-0.3-1.3-1.7-2.2-3-1.9l-4.2,1c1.2-6.1,2.2-9.6,2.2-9.6c0.4-1.3-0.4-2.7-1.7-3.1c-1.3-0.4-2.7,0.4-3.1,1.7
		c-0.1,0.5-3.7,12.3-5.2,31.2C431,291.7,432.1,293,433.4,293.1z"/>
	<path class="st22" d="M551,626.7c0-1.2,0-2.6-0.2-4.1c-0.2-1.5-0.6-3-1.2-4.4c-0.7-1.5-1.3-2.4-1.9-3.6c-0.6-1.1-1.1-2.2-1.6-3.4
		c-0.4-1.2-0.9-2.4-0.8-3.8c-0.6,0.5-0.9,1.2-1.2,1.9c-0.3,0.7-0.4,1.5-0.5,2.2c-0.1,1.5,0,3,0.3,4.4c0.3,1.4,0.8,2.9,1.1,3.9
		c0.3,1.1,0.5,2.2,0.7,3.4c0.2,1.2,0.2,2.5,0.4,3.9c0.2,1.4,0.6,2.9,1.3,4.3c1.3,2.8,3.4,4.9,5.8,6.4c-0.9-2.7-1.7-5.2-2.1-7.6
		C551.1,629.1,551,628,551,626.7z"/>
	<path class="st22" d="M376.8,859.1c-17.6-3.5-34.7,8-38.2,25.5c-3.5,17.6,8,34.7,25.5,38.2c17.6,3.5,34.7-8,38.2-25.5
		C405.8,879.8,394.4,862.6,376.8,859.1z M397.3,896.3c-2.9,14.8-17.4,24.4-32.2,21.5c-14.8-2.9-24.4-17.4-21.5-32.2
		c2.9-14.8,17.4-24.4,32.2-21.5C390.6,867.1,400.2,881.5,397.3,896.3z"/>
	<path class="st22" d="M352.4,899.9l31.4,6.2l4.8-24l-31.4-6.2L352.4,899.9z M383.4,884.1l-13.1,8.7l-8.7-13.1L383.4,884.1z
		 M369.5,897.1l15-10l-3.1,15.5l-25.5-5.1l3.2-16L369.5,897.1z"/>
	<path class="st22" d="M412,588.7c15.1-4.6,23.8-20.6,19.2-35.7c-4.6-15.1-20.6-23.8-35.7-19.2c-15.1,4.6-23.8,20.6-19.2,35.7
		C380.8,584.7,396.8,593.3,412,588.7z M396.8,538.2c12.7-3.8,26.2,3.4,30.1,16.1c3.8,12.7-3.4,26.2-16.1,30.1
		c-12.7,3.8-26.2-3.4-30.1-16.1C376.8,555.5,384,542,396.8,538.2z"/>
	<path class="st22" d="M420.4,567.5l-6.2-20.7l-27.1,8.1l6.2,20.7L420.4,567.5z M411,550.6l-6.6,12.2l-12.2-6.6L411,550.6z
		 M405.5,566.4l7.5-14l4,13.4l-22,6.6l-4.2-13.8L405.5,566.4z"/>
	<path class="st22" d="M271.8,151.5c11.9-1.2,20.7-12,19.4-23.9c-1.2-11.9-12-20.7-23.9-19.4c-11.9,1.2-20.7,12-19.4,23.9
		C249.1,144,259.8,152.8,271.8,151.5z M267.6,111.6c10.1-1,19.1,6.3,20.1,16.3c1,10.1-6.3,19.1-16.3,20.1
		c-10.1,1-19.1-6.3-20.1-16.3C250.3,121.7,257.6,112.7,267.6,111.6z"/>
	<path class="st22" d="M281.1,136.9l-1.7-16.3l-21.3,2.2l1.7,16.3L281.1,136.9z M276.5,122.9l-6.6,8.2l-8.2-6.6L276.5,122.9z
		 M270.1,133.9l7.6-9.4l1.1,10.6l-17.3,1.8l-1.1-10.9L270.1,133.9z"/>
</g>
</svg>
